<svg width="94" height="48" viewBox="0 0 94 48" fill="none" xmlns="http://www.w3.org/2000/svg">
<g clip-path="url(#clip0_2291_17731)">
<g clip-path="url(#clip1_2291_17731)">
<path d="M62.2623 23.352V18.864H65.4636C67.5818 18.864 68.328 19.416 68.328 21.096C68.328 22.776 67.5818 23.352 65.4636 23.352H62.2623ZM28.7082 32.4H35.6404C39.7805 32.4 42.0913 30.552 42.0913 27.288C42.0913 24.192 40.3342 22.44 37.0606 22.224L34.1721 22.032C32.7761 21.936 32.2465 21.48 32.2465 20.4C32.2465 19.368 33.0168 18.912 34.798 18.912H40.8878L41.4655 15.6H34.8461C30.7541 15.6 28.5156 17.376 28.5156 20.592C28.5156 23.544 30.2246 25.248 33.4982 25.488L36.2422 25.68C37.6623 25.776 38.2882 26.232 38.2882 27.36C38.2882 28.56 37.4938 29.088 35.7367 29.088H29.2858L28.7082 32.4ZM47.82 32.4H51.5269V18.912H56.2928L56.8705 15.6H43.0541L42.4764 18.912H47.82V32.4ZM58.5554 32.4H62.2623V26.616H64.6212C65.4155 26.616 65.921 26.904 66.3061 27.552L69.2908 32.4H73.5753L70.1092 26.904C69.7 26.256 69.2667 25.824 68.7131 25.584C70.9757 24.936 72.083 23.352 72.083 20.76C72.083 17.256 70.037 15.6 65.7525 15.6H58.5554V32.4ZM75.6213 32.4H79.3282V18.912H79.617C79.7374 18.912 79.8577 18.96 79.9299 19.08L88.3546 32.4H92.7113L82.9628 16.968C82.3851 16.056 81.6389 15.6 80.628 15.6H75.6213V32.4ZM12.7254 32.4H17.7321V15.6H14.0252V29.088H13.7364C13.616 29.088 13.4957 29.04 13.4235 28.92L4.99883 15.6H0.64209L10.3906 31.032C10.9683 31.944 11.7145 32.4 12.7254 32.4ZM21.6315 32.4H25.3383V15.6H21.6315V32.4Z" fill="white"/>
</g>
</g>
<defs>
<clipPath id="clip0_2291_17731">
<rect width="93.2727" height="48" fill="white" transform="translate(0.0405273)"/>
</clipPath>
<clipPath id="clip1_2291_17731">
<rect width="93.2727" height="18" fill="white" transform="translate(0.0405273 15)"/>
</clipPath>
</defs>
</svg>
