<?xml version="1.0" encoding="UTF-8" standalone="no"?>
<svg
   version="1.1"
   width="429"
   height="429"
   id="svg262"
   viewBox="0 0 445.00058 328.521"
   xmlns="http://www.w3.org/2000/svg"
   xmlns:svg="http://www.w3.org/2000/svg"
  >
  <g id="g584" transform="translate(7.9998054,5.9058362)">
    <path
      fill="#3e4d6b"
      d="m 167.92939,1.0028248 c 1.81653,-0.0165213 3.63301,-0.0437608 5.44921,-0.0820312 2.63177,-0.0551131 5.26202,-0.0766963 7.89429,-0.0913086 0.80238,-0.0226694 1.60475,-0.0453388 2.43144,-0.0686951 6.04461,0.022358 10.15571,1.6603409 14.77559,5.5921326 2.57164,3.313959 3.50358,6.3255445 4.28125,10.4140615 0.20239,1.008047 0.40477,2.016094 0.61328,3.054688 0.4051,2.111702 0.80873,4.223684 1.21094,6.335937 0.20239,1.005469 0.40477,2.010938 0.61328,3.046875 0.17467,0.91604 0.34934,1.83208 0.5293,2.775879 0.82972,2.617912 1.59915,3.702758 3.75195,5.372559 2.8596,1.171104 2.8596,1.171104 6,1 2.16174,-1.771062 2.16174,-1.771062 3.4961,-3.355469 15.42907,-16.871793 39.8556,-24.836508 61.50391,-29.6445305 1.20463,-0.3035743 1.20463,-0.3035743 2.43359,-0.6132813 2.18079,-0.5400433 4.35644,-0.9816183 6.56641,-1.3867187 1.00418,-0.185625 2.00836,-0.37125 3.04297,-0.5625 21.61977,-3.33681439 50.00594,-4.9368894 70.95703,2.5625 1.67112,1.3221498 1.67112,1.3221498 3,3 0.29954,3.0983625 0.41304,5.9965725 0.39441,9.0967705 0.006,0.942336 0.0122,1.884672 0.0185,2.855564 0.0167,3.171445 0.0118,6.342493 0.007,9.513973 0.007,2.268168 0.0159,4.536331 0.0257,6.804489 0.0223,6.171482 0.0251,12.342831 0.0233,18.514347 -1.2e-4,5.146806 0.008,10.293584 0.0168,15.440382 0.0204,12.834796 0.0214,25.669494 0.0142,38.504292 -0.006,11.14805 0.0152,22.29587 0.0484,33.44387 0.0337,11.44379 0.0484,22.88742 0.0443,34.33126 -0.002,6.42604 0.003,12.85184 0.0279,19.27783 0.0222,6.04277 0.0204,12.08506 8e-5,18.12783 -0.003,2.22001 0.002,4.44005 0.016,6.66001 0.0181,3.02678 0.006,6.05191 -0.0149,9.07864 0.0125,0.8822 0.025,1.7644 0.0379,2.67333 -0.0641,4.41097 -0.24063,6.14252 -3.04858,9.72911 -2.84807,2.12535 -3.94002,2.53713 -7.42331,2.3233 -1.1853,-0.0503 -1.1853,-0.0503 -2.39453,-0.10156 -2.16202,-0.21167 -4.31826,-0.48265 -6.47046,-0.77784 -4.09102,-0.5129 -8.15508,-0.6722 -12.27564,-0.69873 -0.73382,-0.007 -1.46765,-0.014 -2.22371,-0.0213 -2.35778,-0.0174 -4.71532,-0.0239 -7.07316,-0.0256 -0.80646,-6.8e-4 -1.61292,-0.001 -2.44382,-0.002 -12.33583,0.0164 -24.23176,0.52058 -36.30618,3.25205 -1.18602,0.25741 -1.18602,0.25741 -2.396,0.52002 -11.49453,2.55358 -22.02621,6.33558 -32.60401,11.47998 -1.47533,0.69029 -1.47533,0.69029 -2.98047,1.39453 -9.58045,4.79714 -18.58064,12.02546 -25.01953,20.60547 0.48131,-0.27151 0.96261,-0.54302 1.4585,-0.82276 11.54663,-6.4518 22.83284,-11.52743 35.5415,-15.17724 0.75749,-0.22527 1.51497,-0.45053 2.29541,-0.68262 19.92348,-5.88429 39.6681,-7.88156 60.3921,-7.75488 0.99843,0.002 1.99686,0.003 3.02554,0.005 15.79017,0.0464 30.79618,1.20947 46.28696,4.43231 3.63,0.66 7.26,1.32 11,2 0,-71.94 0,-143.88 0,-217.999998 -2.31,0 -4.62,0 -7,0 -0.99,-0.33 -1.98,-0.66 -3,-1 0,-4.29 0,-8.58 0,-13 7.01945,-0.350973 14.59763,-0.176214 21,3 2.35385,5.124485 2.28671,10.0207 2.26742,15.540191 0.005,0.953772 0.009,1.907544 0.0137,2.890218 0.0126,3.192029 0.011,6.383887 0.009,9.575938 0.006,2.289935 0.0128,4.579867 0.0204,6.869797 0.0177,6.216668 0.0224,12.433281 0.0236,18.649972 0.002,5.18681 0.009,10.373607 0.0163,15.560412 0.0154,11.53307 0.0213,23.0661 0.02,34.59918 -8e-5,0.69153 -1.6e-4,1.38306 -2.4e-4,2.09554 -8e-5,0.69237 -1.6e-4,1.38474 -2.5e-4,2.09809 -8.1e-4,11.23257 0.0183,22.46499 0.0465,33.69752 0.0287,11.53539 0.0422,23.0707 0.0408,34.60613 -5.1e-4,6.47567 0.005,12.95119 0.0264,19.42683 0.0193,6.08542 0.0196,12.17054 0.005,18.25597 -0.002,2.23656 0.003,4.47314 0.0147,6.70966 0.0153,3.04646 0.006,6.09189 -0.009,9.13832 0.0103,0.89085 0.0206,1.7817 0.0312,2.69954 -0.0674,5.98133 -0.0674,5.98133 -2.43156,9.10458 -3.73851,2.64595 -6.6079,2.92785 -11.09409,2.48211 -1.95178,-0.43135 -3.89662,-0.89461 -5.83594,-1.37891 -42.66164,-10.03978 -85.72051,-7.0682 -127.16407,6.37891 0,0.33 0,0.66 0,1 1.88018,-0.31832 1.88018,-0.31832 3.79834,-0.64307 13.34583,-2.14806 26.32406,-2.84189 39.82667,-2.73193 1.00014,0.004 2.00028,0.008 3.03073,0.0121 22.37987,0.1043 43.98428,2.24432 65.90188,6.85559 2.42725,0.50418 4.8589,0.97605 7.29395,1.44092 9.76671,1.90284 19.14468,4.46289 28.58594,7.60156 5.13843,1.64976 10.35589,3.04486 15.5625,4.46485 0,-74.58 0,-149.16 0,-225.999998 -3.3,-0.33 -6.6,-0.66 -10,-1 0,-4.62 0,-9.24 0,-14 2.7313,0.255965 5.45901,0.529166 8.1875,0.8125 0.76892,0.07025 1.53785,0.140507 2.33008,0.21289 4.50399,0.483261 7.79002,1.12824 11.48242,3.97461 1.13291,2.265835 1.12807,3.493752 1.13422,6.008739 0.004,0.843264 0.009,1.686527 0.0135,2.555344 -2.8e-4,1.397537 -2.8e-4,1.397537 -5.6e-4,2.823307 0.004,0.985695 0.007,1.97139 0.0111,2.986955 0.0111,3.324116 0.0149,6.648202 0.0187,9.972334 0.006,2.374767 0.0129,4.749533 0.0199,7.124298 0.0192,7.142001 0.0298,14.284001 0.0387,21.426031 0.004,3.36238 0.01,6.72477 0.015,10.08716 0.017,11.17595 0.0315,22.3519 0.0387,33.52786 0.002,2.90094 0.004,5.80188 0.006,8.70281 4.9e-4,0.72103 9.7e-4,1.44205 0.001,2.18492 0.008,11.68088 0.0336,23.36166 0.0661,35.0425 0.0331,11.98953 0.0511,23.979 0.0543,35.96857 0.002,6.7329 0.0109,13.46565 0.0365,20.1985 0.0232,6.33324 0.0275,12.6662 0.0172,18.99946 -5e-4,2.32602 0.006,4.65206 0.0196,6.97804 0.0176,3.17294 0.0106,6.3449 -0.003,9.51784 0.0165,1.38416 0.0165,1.38416 0.0332,2.79627 -0.0568,5.65255 -0.80756,8.76595 -4.52098,13.09906 -4.65814,2.32907 -9.93183,1.19431 -14.67188,-0.35547 -1.69606,-0.60129 -3.38866,-1.21244 -5.07812,-1.83203 -10.29099,-3.59826 -20.63506,-6.35924 -31.25,-8.8125 -0.76941,-0.1816 -1.53882,-0.3632 -2.33155,-0.5503 -11.14564,-2.62655 -22.32473,-4.86857 -33.66845,-6.4497 -0.73912,-0.10587 -1.47824,-0.21173 -2.23975,-0.3208 -42.93461,-5.82243 -88.58863,-3.13931 -127.76026,16.3208 -7.12875,3.2176 -14.21559,4.0647 -22,3 -5.03973,-2.05096 -8.78112,-6.03905 -11,-11 -0.56775,-3.6265 -0.50594,-7.20657 -0.4541,-10.87061 -5.8e-4,-1.08352 -0.001,-2.16704 -0.002,-3.2834 0.003,-3.57139 0.0339,-7.14194 0.0652,-10.71318 0.007,-2.48007 0.0131,-4.96014 0.0172,-7.44022 0.0152,-6.52015 0.0545,-13.03995 0.0988,-19.55996 0.0431,-6.65612 0.0592,-13.31235 0.0793,-19.96857 0.0429,-13.05484 0.11035,-26.10943 0.19531,-39.16406 -1.09183,0.0227 -2.18367,0.0454 -3.30859,0.0688 -7.69791,-0.14358 -15.58384,-5.10893 -21.16406,-10.30713 -6.60318,-7.61646 -10.03346,-16.06879 -9.77344,-26.14844 1.10645,-11.74944 7.1418,-19.37396 15.88281,-26.85156 5.9242,-4.41623 11.03218,-5.71442 18.36328,-6.76172 0,-35.639998 0,-71.279998 0,-107.999998 -10.395,0.495 -10.395,0.495 -21,1 -0.36351,1.723476 -0.72703,3.446953 -1.10156,5.222656 -0.50671,2.280193 -1.01458,4.560128 -1.52344,6.839844 -0.35384,1.700595 -0.35384,1.700595 -0.71484,3.435547 -1.51284,6.652614 -2.86923,12.423668 -8.66016,16.501953 -3.99184,1.945386 -8.08793,3.335342 -12.3125,4.6875 -2.18464,0.729937 -4.36826,1.462962 -6.55078,2.199218 -1.04357,0.348047 -2.08715,0.696094 -3.16235,1.054688 -3.45911,1.231115 -6.76084,2.682173 -10.06714,4.27417 -3.40341,1.399789 -6.39072,1.632094 -9.907223,0.784424 -4.957043,-2.222423 -9.262206,-5.440834 -13.609375,-8.660157 -0.6231,-0.457778 -1.246201,-0.915556 -1.888183,-1.387207 -1.236968,-0.915903 -2.464249,-1.845058 -3.680665,-2.788086 -3.155356,-2.441231 -3.155356,-2.441231 -6.958496,-3.187988 -2.438808,1.339555 -4.26634,2.931866 -6.300778,4.835938 -1.29358,1.198828 -1.29358,1.198828 -2.61328,2.421875 -0.70117,0.658388 -0.70117,0.658388 -1.41651,1.330078 -1.68328,1.576567 -3.37835,3.13975 -5.07568,4.701172 -3.15798,2.905409 -6.30897,5.818223 -9.45703,8.734375 1.52048,4.52727 4.05323,8.08248 6.875,11.875 10.19968,13.771087 10.19968,13.771087 9.125,21.124998 -1.34786,3.7429 -3.02073,7.29502 -4.75,10.875 -0.89088,1.89311 -1.78151,3.78634 -2.67188,5.67969 -0.43562,0.91217 -0.87124,1.82434 -1.32007,2.76416 -1.5212,3.24196 -2.9392,6.52282 -4.32959,9.82275 -2.21046,4.42441 -5.07184,6.23038 -9.57299,7.75293 -9.29811,2.37423 -18.83026,3.16022 -28.35547,4.10547 0.33,11.22 0.66,22.44 1,34 8.19387,1.47894 8.19387,1.47894 16.39258,2.93066 7.61585,1.41938 14.31289,2.79145 19.92773,8.37793 1.96773,3.15295 3.25804,6.27054 4.55469,9.75391 1.89212,4.99982 3.97359,9.7124 6.5,14.4375 2.24389,4.41693 3.59197,7.47176 2.625,12.5 -2.79708,6.17744 -6.27952,11.51921 -10.25,17 -0.5543,0.77472 -1.1086,1.54945 -1.67969,2.34765 -1.35176,1.88781 -2.70855,3.77175 -4.07031,5.65235 1.38431,3.15272 2.96473,5.1629 5.48437,7.49609 0.68836,0.64131 1.37672,1.28262 2.08594,1.94336 1.07894,0.98903 1.07894,0.98903 2.17969,1.99805 0.70383,0.65549 1.40765,1.31097 2.13281,1.98633 2.02429,1.87566 4.06897,3.72672 6.11719,5.57617 0.56525,0.53512 1.1305,1.07024 1.712888,1.62158 1.683508,1.58714 1.683508,1.58714 4.287109,3.37842 2.954688,-0.36717 5.00076,-1.47197 7.425781,-3.14453 0.632286,-0.42991 1.264571,-0.85981 1.916016,-1.30274 0.650332,-0.45053 1.300664,-0.90105 1.970703,-1.36523 1.928737,-1.3254 3.860593,-2.64275 5.811035,-3.93604 1.194484,-0.79663 2.373641,-1.61711 3.530274,-2.46777 5.176045,-3.4985 10.254784,-3.64102 16.346184,-2.78369 3.88627,1.12009 7.50495,2.65032 11.1875,4.3125 1.86811,0.80947 3.7366,1.61808 5.60547,2.42578 0.88261,0.38857 1.76521,0.77714 2.67456,1.17749 2.31436,0.99085 4.63808,1.89728 7.00122,2.76392 4.69912,1.75697 8.39203,3.42159 11.03125,7.82031 1.91515,4.46868 3.05651,8.96877 4.1875,13.6875 0.22495,0.9017 0.44989,1.8034 0.68164,2.73242 1.63086,6.65728 1.63086,6.65728 1.63086,10.08008 3.63,0 7.26,0 11,0 0.94401,2.18099 1.88802,4.36198 2.83204,6.54297 1.23467,2.59735 2.65353,5.01397 4.16796,7.45703 -3.3747,0.11689 -6.74888,0.18748 -10.125,0.25 -0.95132,0.0335 -1.90265,0.067 -2.88281,0.10156 -6.8765,0.0955 -10.31379,-1.1386 -15.56665,-5.72681 -1.67936,-1.91405 -2.1311,-3.33169 -2.74194,-5.79272 -0.2069,-0.81147 -0.41379,-1.62293 -0.62696,-2.45899 -0.30647,-1.26747 -0.30647,-1.26747 -0.61914,-2.56054 -0.20818,-0.82565 -0.41636,-1.65129 -0.63086,-2.50196 -0.2056,-0.81791 -0.41121,-1.63582 -0.62304,-2.47851 -0.21052,-0.81042 -0.42104,-1.62084 -0.63794,-2.45581 -0.54566,-2.37622 -0.54566,-2.37622 -0.78467,-4.62158 -0.22987,-2.42358 -0.22987,-2.42358 -1.76099,-5.75464 -3.17897,-2.09166 -6.57582,-3.1721 -10.1875,-4.3125 -1.86881,-0.641 -3.7373,-1.2829 -5.60547,-1.92578 -0.89509,-0.29472 -1.79018,-0.58943 -2.7124,-0.89307 -2.1907,-0.76282 -4.25522,-1.62554 -6.35791,-2.59912 -3.19665,-1.29379 -4.75764,-1.61627 -8.13672,-1.26953 -2.542089,1.24328 -2.542089,1.24328 -5.011712,3.02734 -0.922324,0.62713 -1.844648,1.25426 -2.794922,1.90039 -0.950683,0.66322 -1.901367,1.32645 -2.880859,2.00977 -1.899313,1.3014 -3.799032,2.60221 -5.699219,3.90234 -1.256231,0.87193 -1.256231,0.87193 -2.537841,1.76148 -3.138045,2.11479 -5.060714,2.6028 -8.82544,2.71118 -0.840469,0.0374 -1.680937,0.0748 -2.546875,0.11328 C 64.42803,285.71465 59.47623,279.72391 54.7289,275.16522 49.39776,270.08657 44.03146,265.12243 38.39687,260.38006 c -2.78421,-2.94298 -4.52143,-6.10649 -5.34375,-10.08984 0.41734,-7.13799 4.5938,-12.02905 8.78515,-17.50781 0.4299,-0.56365 0.85981,-1.12729 1.30274,-1.70801 0.91854,-1.18204 1.85875,-2.34747 2.8164,-3.49805 2.93345,-3.67734 2.93345,-3.67734 3.51367,-8.26269 -1.49073,-4.44873 -3.48209,-8.54777 -5.53906,-12.75782 -1.21507,-2.67839 -1.92656,-4.99068 -2.57812,-7.82812 -1.49293,-3.47379 -1.49293,-3.47379 -4.16016,-4.41797 -3.22625,-0.85541 -6.41825,-1.43201 -9.71484,-1.95703 -2.09078,-0.36381 -4.17925,-0.73824 -6.26685,-1.11988 -1.37256,-0.24749 -2.74742,-0.48268 -4.12451,-0.70361 -5.61343,-0.96059 -10.01024,-2.44851 -13.92114,-6.67651 -3.10446,-4.5992 -2.87871,-8.97456 -2.92578,-14.33203 -0.008,-0.86937 -0.0162,-1.73874 -0.0245,-2.63445 -0.0138,-1.84001 -0.0246,-3.68005 -0.0324,-5.52009 -0.0172,-2.80511 -0.0611,-5.60903 -0.10522,-8.41382 -0.0101,-1.78971 -0.0187,-3.57942 -0.0254,-5.36914 -0.0175,-0.83458 -0.035,-1.66915 -0.0531,-2.52901 0.02019,-5.38455 0.86474,-8.45763 4.47913,-12.70146 2.9951,-2.82357 5.64229,-3.60124 9.64843,-4.38672 1.08797,-0.21592 2.17594,-0.43184 3.29688,-0.6543 1.1318,-0.21334 2.26359,-0.42668 3.42969,-0.64648 1.68609,-0.33741 1.68609,-0.33741 3.40625,-0.68164 5.16961,-1.00521 9.93545,-1.75493 15.21875,-1.63086 0.13535,-0.55946 0.2707,-1.11891 0.41015,-1.69531 1.85975,-6.92674 4.7706,-12.83142 8.16407,-19.10547 1.45056,-3.25482 1.78068,-4.723843 1.42578,-8.199218 -1.12625,-2.238658 -1.12625,-2.238658 -2.77344,-4.320313 -0.5775,-0.782461 -1.155,-1.564922 -1.75,-2.371094 -0.61102,-0.803086 -1.22203,-1.606171 -1.85156,-2.433593 -1.19544,-1.606682 -2.39075,-3.213449 -3.58594,-4.820313 -0.53416,-0.706567 -1.06831,-1.413135 -1.61865,-2.141113 -2.7199,-3.664248 -3.73248,-5.676238 -3.79541,-10.226074 -0.0284,-0.924258 -0.0567,-1.848516 -0.0859,-2.800782 1.02769,-6.436135 5.87453,-10.506805 10.52344,-14.636718 0.56855,-0.513692 1.13711,-1.027383 1.7229,-1.556641 1.16739,-1.054439 2.3369,-2.106534 3.50854,-3.15625 1.611,-1.451468 3.20459,-2.919298 4.79199,-4.396484 0.94102,-0.871407 1.88204,-1.742813 2.85157,-2.640625 0.83402,-0.773438 1.66804,-1.546875 2.52734,-2.34375 5.22229,-4.441763 8.933303,-7.029686 15.835938,-6.730469 5.316114,1.130924 9.37214,4.424576 13.699219,7.574219 2.094717,1.492518 4.198908,2.971832 6.3125,4.4375 1.417324,1.019004 1.417324,1.019004 2.863281,2.058593 3.307072,1.761028 5.126752,1.953862 8.824212,1.503907 2.509,-0.879424 2.509,-0.879424 4.9375,-2.1875 3.29651,-1.62785 6.46151,-2.984626 10.00391,-3.941407 6.97012,-1.621887 6.97012,-1.621887 12.57422,-5.660156 0.85529,-2.429379 1.18785,-4.649387 1.48437,-7.210937 0.34231,-1.899701 0.68597,-3.799286 1.05567,-5.693848 0.36631,-1.912604 0.68569,-3.834016 1.00293,-5.755371 1.61413,-6.0850956 4.81506,-10.0010482 9.94216,-13.5505805 6.06254,-2.02084436 13.08621,-1.3077256 19.44947,-1.3500977 z"
    />
    <path
      fill="#fdfdfe"
      d="m 353.47993,16.352923 c 0,70.62 0,141.239997 0,213.999997 -15.84,0 -31.68,0 -48,0 -8.36067,0.99259 -15.97074,1.93051 -24,4 -0.90057,0.21962 -1.80115,0.43925 -2.72901,0.66553 -16.24503,4.01649 -31.53058,9.58606 -45.27099,19.33447 -0.7309,0.50789 -1.4618,1.01578 -2.21484,1.53906 -12.09869,8.88258 -21.11812,19.05093 -27.78516,32.46094 -0.86432,1.72283 -0.86432,1.72283 -1.74609,3.48047 -1.02444,2.05624 -2.03558,4.11921 -3.02735,6.1914 -1.22656,2.32813 -1.22656,2.32813 -3.22656,4.32813 -3,0.25 -3,0.25 -6,0 -2.47502,-2.47502 -2.25167,-3.17842 -2.25829,-6.58617 -0.007,-0.96604 -0.0137,-1.93208 -0.0207,-2.9274 0.004,-1.59514 0.004,-1.59514 0.008,-3.22251 -0.005,-1.11714 -0.0104,-2.23427 -0.0158,-3.38526 -0.0103,-2.43197 -0.016,-4.86396 -0.0179,-7.29596 -0.004,-3.84465 -0.0203,-7.68904 -0.0408,-11.53364 -0.0485,-9.54996 -0.0801,-19.09995 -0.1013,-28.65001 -0.0179,-8.06391 -0.0473,-16.12756 -0.094,-24.19136 -0.0117,-2.55135 -0.0176,-5.10273 -0.0177,-7.6541 -2e-4,-3.5629 -0.0184,-7.12529 -0.0406,-10.68811 0.005,-1.06141 0.009,-2.12282 0.0139,-3.21639 -0.01,-0.96886 -0.0193,-1.93772 -0.0292,-2.93594 -0.002,-0.84269 -0.004,-1.68537 -0.006,-2.5536 -0.46858,-2.6688 -1.23199,-3.54864 -3.37917,-5.15955 -2.85394,-0.57805 -2.85394,-0.57805 -6.0625,-0.8125 -7.46168,-1.01486 -13.45951,-3.39625 -18.62891,-9.03125 -4.72038,-6.34704 -5.27433,-12.47207 -4.30903,-20.15625 2.90362,-7.57467 8.83346,-11.68873 16,-15 8.05405,-2.66831 17.26221,-1.71142 24.84766,1.80469 5.63397,3.12885 9.75954,7.07722 12.15234,13.19531 0.56925,3.63491 0.56432,7.2185 0.5459,10.89233 0.0103,1.07392 0.0207,2.14783 0.0313,3.25429 0.0294,3.53331 0.0309,7.06605 0.0322,10.59947 0.015,2.45624 0.0317,4.91246 0.0501,7.36867 0.0437,6.45258 0.0637,12.90502 0.0787,19.35771 0.0196,6.58934 0.0615,13.17853 0.10162,19.76776 0.0753,12.91988 0.12635,25.83973 0.16016,38.75977 0.53109,-0.5427 1.06219,-1.08539 1.60938,-1.64453 0.7064,-0.71543 1.41281,-1.43086 2.14062,-2.16797 0.69609,-0.7077 1.39219,-1.41539 2.10938,-2.14453 2.14064,-2.04297 2.14064,-2.04297 4.37494,-3.55619 1.91061,-1.32171 1.91061,-1.32171 2.26627,-3.34288 3.2e-4,-1.04933 3.2e-4,-1.04933 6.4e-4,-2.11987 0.0148,-1.20877 0.0148,-1.20877 0.0298,-2.44195 -0.01,-0.88053 -0.0193,-1.76105 -0.0293,-2.66826 0.005,-0.93047 0.0108,-1.86094 0.0164,-2.81961 0.0125,-3.08511 -0.004,-6.1693 -0.022,-9.25437 1.6e-4,-2.14652 0.002,-4.29304 0.004,-6.43956 0.001,-4.50684 -0.0112,-9.01337 -0.0339,-13.52015 -0.0283,-5.75769 -0.0257,-11.51484 -0.0129,-17.27256 0.007,-4.43803 -8.6e-4,-8.87594 -0.0132,-13.31396 -0.005,-2.12133 -0.005,-4.24267 -9.4e-4,-6.364 0.003,-2.97949 -0.0137,-5.95827 -0.0354,-8.93767 0.004,-0.86635 0.009,-1.73271 0.0136,-2.62532 -0.11806,-9.86738 -2.84962,-18.87855 -9.41737,-26.36662 -7.1704,-6.56297 -14.60754,-8.64555 -24,-12 0,-35.309997 0,-70.619997 0,-106.999997 2.24616,2.246161 2.38649,3.039157 2.92969,6.070312 0.15597,0.814688 0.31195,1.629375 0.47265,2.46875 0.31071,1.699901 0.6181,3.400411 0.92188,5.101563 1.05824,5.489074 2.12034,10.912279 5.67578,15.359375 1.68025,0.791022 3.38099,1.539296 5.09473,2.254883 3.50942,2.047138 4.69356,2.97882 5.78939,6.945221 0.27612,4.194552 0.2419,8.283335 0.0924,12.479583 -0.0187,1.538375 -0.0329,3.07681 -0.0429,4.615265 -0.0381,4.035962 -0.13616,8.068284 -0.24704,12.102814 -0.10258,4.122119 -0.14803,8.24483 -0.19837,12.367859 -0.10696,8.079792 -0.27746,16.156632 -0.48821,24.234372 0.7848,0.29511 1.56959,0.59023 2.37817,0.89429 2.82794,1.19263 4.23688,2.43742 6.30933,4.66821 2.38176,2.58402 2.38176,2.58402 5.3125,4.4375 -0.0178,-0.98448 -0.0355,-1.96896 -0.0538,-2.98328 -0.16249,-9.29784 -0.28225,-18.59539 -0.36067,-27.894334 -0.0417,-4.78033 -0.0982,-9.559511 -0.18902,-14.33918 -0.0872,-4.616656 -0.13481,-9.232208 -0.1555,-13.849625 -0.0147,-1.757531 -0.0435,-3.515005 -0.0868,-5.272064 -0.32514,-13.739214 -0.32514,-13.739214 2.56073,-18.476715 1.99362,-2.031038 3.92096,-3.612197 6.28511,-5.184799 1.13282,-0.882441 2.26459,-1.766225 3.39453,-2.652344 1.13001,-0.775463 2.26971,-1.536972 3.41797,-2.285156 0.9477,-0.621046 0.9477,-0.621046 1.91455,-1.254639 34.84755,-22.168472 75.13075,-24.530467 115.2729,-19.807861 z"
    />
    <path
      fill="#86a68d"
      d="m 374.47993,30.352923 c 7.01945,-0.350973 14.59763,-0.176214 21,3 2.35385,5.124485 2.28671,10.0207 2.26742,15.540192 0.005,0.953772 0.009,1.907544 0.0137,2.890218 0.0127,3.192028 0.011,6.383887 0.009,9.575938 0.006,2.289934 0.0128,4.579867 0.0204,6.869796 0.0177,6.216668 0.0224,12.433281 0.0236,18.649972 0.002,5.18681 0.009,10.373607 0.0163,15.560411 0.0154,11.53307 0.0213,23.06611 0.02,34.59918 -8e-5,0.69153 -1.6e-4,1.38306 -2.4e-4,2.09554 -8e-5,0.69237 -1.6e-4,1.38474 -2.5e-4,2.09809 -8.1e-4,11.23257 0.0183,22.465 0.0465,33.69752 0.0287,11.53539 0.0422,23.0707 0.0408,34.60613 -5.1e-4,6.47567 0.005,12.95119 0.0264,19.42683 0.0193,6.08542 0.0196,12.17054 0.005,18.25597 -0.002,2.23656 0.003,4.47314 0.0147,6.70967 0.0154,3.04646 0.006,6.09188 -0.009,9.13832 0.0103,0.89084 0.0206,1.78169 0.0312,2.69953 -0.0674,5.98133 -0.0674,5.98133 -2.43155,9.10458 -3.73853,2.64596 -6.60792,2.92785 -11.09411,2.48211 -1.95178,-0.43135 -3.89662,-0.89461 -5.83594,-1.37891 -42.66164,-10.03978 -85.72051,-7.0682 -127.16406,6.37891 0,0.33 0,0.66 0,1 1.25345,-0.21221 2.5069,-0.42442 3.79834,-0.64307 13.34582,-2.14806 26.32405,-2.84189 39.82666,-2.73193 1.00014,0.004 2.00028,0.008 3.03073,0.0121 22.37987,0.1043 43.98428,2.24433 65.90188,6.8556 2.42725,0.50418 4.8589,0.97604 7.29395,1.44091 9.76671,1.90284 19.14468,4.46289 28.58594,7.60157 5.13843,1.64973 10.35589,3.04484 15.5625,4.46482 0,-74.58 0,-149.16 0,-225.999997 -3.3,-0.33 -6.6,-0.66 -10,-1 0,-4.62 0,-9.24 0,-14 2.7313,0.255966 5.45901,0.529166 8.1875,0.8125 0.76892,0.07025 1.53785,0.140508 2.33007,0.212891 4.504,0.483261 7.79003,1.12824 11.48243,3.974609 1.13291,2.265835 1.12807,3.493752 1.13422,6.008739 0.005,0.843264 0.009,1.686528 0.0135,2.555345 -1.9e-4,0.931691 -3.7e-4,1.863382 -5.6e-4,2.823306 0.004,0.985695 0.007,1.97139 0.0111,2.986955 0.0111,3.324117 0.0149,6.648202 0.0187,9.972335 0.006,2.374767 0.0129,4.749533 0.0199,7.124298 0.0192,7.141999 0.0298,14.284009 0.0387,21.426029 0.004,3.36239 0.01,6.72478 0.015,10.08716 0.017,11.17595 0.0315,22.3519 0.0387,33.52787 0.002,2.90093 0.004,5.80187 0.006,8.7028 4.8e-4,0.72103 9.7e-4,1.44205 10e-4,2.18492 0.008,11.68089 0.0336,23.36167 0.0661,35.0425 0.0331,11.98953 0.0511,23.979 0.0543,35.96857 0.002,6.7329 0.0109,13.46565 0.0365,20.19851 0.0232,6.33323 0.0275,12.66619 0.0172,18.99945 -5e-4,2.32602 0.006,4.65206 0.0196,6.97804 0.0176,3.17294 0.0107,6.34491 -0.002,9.51785 0.011,0.92276 0.0219,1.84553 0.0332,2.79626 -0.0569,5.65255 -0.80765,8.76595 -4.52107,13.09906 -4.65814,2.32907 -9.93183,1.19431 -14.67188,-0.35547 -1.69606,-0.60129 -3.38866,-1.21244 -5.07812,-1.83203 -10.29099,-3.59825 -20.63506,-6.35924 -31.25,-8.8125 -0.76941,-0.1816 -1.53882,-0.36319 -2.33155,-0.55029 -11.14564,-2.62656 -22.32473,-4.86858 -33.66845,-6.44971 -0.73912,-0.10586 -1.47824,-0.21173 -2.23975,-0.3208 -41.03343,-5.5646 -87.463,-4.13876 -124.93212,14.93799 -2.33374,1.14108 -4.29399,1.90305 -6.82813,2.38281 0.34031,-0.46406 0.68063,-0.92813 1.03125,-1.40625 3.5007,-4.99036 6.30889,-10.12708 8.96875,-15.59375 6.77782,-13.81095 6.77782,-13.81095 10,-17 1.66067,-0.36202 3.32874,-0.69051 5,-1 2.27051,-1.18474 4.4739,-2.40627 6.6875,-3.6875 8.41973,-4.6601 17.10311,-7.61349 26.3125,-10.3125 0.76329,-0.22816 1.52657,-0.45633 2.31299,-0.69141 19.91662,-5.87882 39.65901,-7.87271 60.37451,-7.74609 0.99843,0.002 1.99686,0.003 3.02554,0.005 15.79017,0.0464 30.79618,1.20947 46.28696,4.43231 3.63,0.66 7.26,1.32 11,2 0,-71.93981 0,-143.87981 0,-217.999807 -2.31,0 -4.62,0 -7,0 -0.99,-0.33 -1.98,-0.66 -3,-1 0,-4.29 0,-8.58 0,-13 z"
    />
    <path
      fill="#3e4d6b"
      d="m 165.47993,68.352923 c 0,4.29 0,8.58 0,13 -1.77891,0.22043 -1.77891,0.22043 -3.59375,0.445313 -21.34135,2.863404 -38.88441,10.060362 -54.40625,25.554684 -0.62391,0.61231 -1.24782,1.22461 -1.89063,1.85547 -13.864753,14.64543 -18.841902,32.89726 -18.565182,52.60401 0.236308,7.16971 0.910721,13.78428 3.455811,20.54052 0.527871,1.4792 0.527871,1.4792 1.066406,2.98828 7.987548,20.74654 23.068265,35.51217 43.183595,44.51172 9.81218,3.86473 19.24915,5.80915 29.75,6.5 0,4.29 0,8.58 0,13 -14.31699,0.71585 -27.11207,-2.86289 -40,-9 -0.89977,-0.41766 -1.79953,-0.83531 -2.72657,-1.26563 -8.10424,-4.06379 -14.60802,-9.68686 -21.27343,-15.73437 -0.827579,-0.73219 -1.655157,-1.46438 -2.507813,-2.21875 -15.065158,-14.06781 -24.708661,-35.60555 -25.875,-56.08984 -0.515211,-16.06419 1.987386,-30.31007 9.382812,-44.69141 0.282305,-0.65613 0.564609,-1.31226 0.855469,-1.98828 9.193919,-20.848182 29.816702,-35.734208 50.165522,-44.25244 10.70477,-4.107058 21.56036,-5.913583 32.97901,-5.759277 z"
    />
    <path
      fill="#86a68d"
      d="m 165.47993,97.352923 c 0,4.619997 0,9.239997 0,13.999997 -1.42313,0.2475 -2.84625,0.495 -4.3125,0.75 -14.11303,2.90212 -25.18569,8.91224 -33.96485,20.59375 -7.37016,11.36442 -8.96311,22.74026 -7.44922,36.0625 2.6734,12.30769 10.6832,22.47399 20.97657,29.40625 7.78296,4.63037 15.82914,7.70069 24.75,9.1875 0,4.29 0,8.58 0,13 -14.78447,1.15957 -28.64044,-6.6606 -39.65235,-15.875 -9.6422,-8.72772 -15.73366,-18.64501 -19.34765,-31.125 -0.33,-0.99 -0.66,-1.98 -1,-3 -1.12348,-12.98822 -0.93113,-25.20068 5,-37 0.43441,-0.88429 0.86882,-1.76859 1.3164,-2.67969 8.58076,-15.69472 22.92915,-26.11803 39.86719,-31.292964 4.833,-1.271841 8.77445,-2.027343 13.81641,-2.027343 z"
    />
    <path
      fill="#3e4d6b"
      d="m 154.10493,69.290423 c 1.22589,0.01353 1.22589,0.01353 2.47656,0.02734 0.93973,0.0174 0.93973,0.0174 1.89844,0.03516 -0.33,0.99 -0.66,1.98 -1,3 -3.3,0 -6.6,0 -10,0 0,-0.66 0,-1.32 0,-2 2.40545,-1.202729 3.94997,-1.100715 6.625,-1.0625 z"
    />
    <path
      fill="#3e4d6b"
      d="m 151.47993,82.352923 c 0,0.33 0,0.66 0,1 -4.29,0.99 -8.58,1.98 -13,3 0,-0.66 0,-1.32 0,-2 4.77831,-2.913604 7.55106,-3.198767 13,-2 z"
    />
    <path
      fill="#3e4d6b"
      d="m 133.47993,74.352923 c 0.99,0.33 1.98,0.66 3,1 -0.6875,1.9375 -0.6875,1.9375 -2,4 -2.625,0.75 -2.625,0.75 -5,1 0.3125,-1.875 0.3125,-1.875 1,-4 0.99,-0.66 1.98,-1.32 3,-2 z"
    />
    <path
      fill="#86a68d"
      d="m 121.47993,194.35292 c 0.99,0.99 1.98,1.98 3,3 -0.99,0.99 -1.98,1.98 -3,3 -0.99,-1.32 -1.98,-2.64 -3,-4 0.99,0 1.98,0 3,0 0,-0.66 0,-1.32 0,-2 z"
    />
  </g>
</svg>
