<svg width="960" height="720" viewBox="0 0 960 720" fill="none" xmlns="http://www.w3.org/2000/svg">
  <rect width="960" height="720" fill="#FDBA74"/>
  <rect x="72" y="72" width="816" height="576" rx="40" fill="#FFEDD5"/>
  <circle cx="732" cy="220" r="92" fill="#FB923C"/>
  <path d="M170 246C170 231.641 181.641 220 196 220H514C528.359 220 540 231.641 540 246V274C540 288.359 528.359 300 514 300H196C181.641 300 170 288.359 170 274V246Z" fill="#9A3412"/>
  <path d="M170 350C170 335.641 181.641 324 196 324H726C740.359 324 752 335.641 752 350V370C752 384.359 740.359 396 726 396H196C181.641 396 170 384.359 170 370V350Z" fill="#C2410C"/>
  <path d="M170 440C170 425.641 181.641 414 196 414H640C654.359 414 666 425.641 666 440V460C666 474.359 654.359 486 640 486H196C181.641 486 170 474.359 170 460V440Z" fill="#EA580C"/>
</svg>
