<svg width="88" height="48" viewBox="0 0 88 48" fill="none" xmlns="http://www.w3.org/2000/svg">
<g clip-path="url(#clip0_2197_4372)">
<path d="M87.3835 29.0994C87.234 29.0994 87.0976 29.1962 87.0272 29.3986C86.1253 31.9725 84.9065 33.5036 83.9034 33.5036C83.3271 33.5036 83.0939 32.8612 83.0939 31.8537C83.0939 29.3326 84.6029 23.9869 85.3641 21.5494C85.4521 21.2547 85.5093 20.9907 85.5093 20.7663C85.5093 20.0579 85.1222 19.7103 84.1631 19.7103C83.129 19.7103 82.016 20.1151 80.9335 22.0114C80.5597 20.3395 79.4289 19.6092 77.8494 19.6092C76.0236 19.6092 74.2592 20.7839 72.8072 22.689C71.3552 24.5941 69.6481 25.2188 68.3635 24.9109C69.2875 22.6494 69.6306 20.9599 69.6306 19.7059C69.6306 17.7392 68.6582 16.5513 67.0874 16.5513C64.6985 16.5513 63.3212 18.8304 63.3212 21.2283C63.3212 23.0806 64.1618 24.9857 66.0096 25.9096C64.4609 29.4118 62.1994 32.5796 61.3415 32.5796C60.2328 32.5796 59.907 27.1547 59.9688 23.2742C60.0082 21.0479 60.1931 20.9335 60.1931 20.2603C60.1931 19.8731 59.9424 19.6092 58.9347 19.6092C56.5854 19.6092 55.8592 21.5978 55.7494 23.8813C55.7138 24.7491 55.5779 25.6098 55.3445 26.4464C54.3635 29.9486 52.3395 32.606 51.0197 32.606C50.408 32.606 50.2409 31.9945 50.2409 31.1937C50.2409 28.6727 51.6533 25.5224 51.6533 22.8342C51.6533 20.8587 50.7865 19.6092 49.1541 19.6092C47.2314 19.6092 44.6883 21.897 42.2817 26.1824C43.0737 22.9002 43.3993 19.7235 41.054 19.7235C40.5454 19.7311 40.0459 19.8609 39.5979 20.1019C39.4475 20.1723 39.3216 20.2863 39.2368 20.4291C39.152 20.5719 39.1123 20.7369 39.1226 20.9027C39.3469 24.3961 36.3068 33.3452 33.4249 33.3452C32.9015 33.3452 32.6462 32.7777 32.6462 31.8625C32.6462 29.337 34.1508 24.0045 34.9077 21.5626C35.0044 21.2459 35.0573 20.9731 35.0573 20.7355C35.0573 20.0667 34.6437 19.7235 33.7065 19.7235C32.6769 19.7235 31.5594 20.1151 30.4815 22.0114C30.1031 20.3395 28.9725 19.6092 27.3928 19.6092C24.8014 19.6092 21.9064 22.3502 20.6349 25.9228C18.9322 30.6921 15.5004 35.2987 10.8806 35.2987C6.68763 35.2987 4.47455 31.8097 4.47455 26.2968C4.47455 18.3376 10.3174 11.8348 14.6512 11.8348C16.7235 11.8348 17.7134 13.1547 17.7134 15.1786C17.7134 17.6292 16.3451 18.7688 16.3451 19.7015C16.3451 19.9875 16.5827 20.2691 17.0535 20.2691C18.9366 20.2691 21.154 18.056 21.154 15.0378C21.154 12.0196 18.7034 9.81088 14.3696 9.81088C7.20681 9.81088 0 17.0177 0 26.2528C0 33.6005 3.62539 38.031 9.89505 38.031C14.1716 38.031 17.907 34.7048 19.9221 30.8241C20.1509 34.0403 21.6116 35.7212 23.838 35.7212C25.8177 35.7212 27.4193 34.5421 28.6424 32.4697C29.1132 34.6387 30.3627 35.699 31.9862 35.699C33.8474 35.699 35.4049 34.5199 36.8875 32.3288C36.8656 34.0492 37.2571 35.6683 38.7487 35.6683C39.4527 35.6683 40.2931 35.5055 40.4426 34.8895C42.0134 28.3955 45.8938 23.0938 47.0818 23.0938C47.4338 23.0938 47.5307 23.4326 47.5307 23.8329C47.5307 25.5972 46.2855 29.2138 46.2855 31.5237C46.2855 34.0184 47.3458 35.6683 49.5369 35.6683C51.9656 35.6683 54.4339 32.694 56.0792 28.3471C56.594 32.408 57.7072 35.6858 59.4495 35.6858C61.5879 35.6858 65.3849 31.1849 67.6859 26.42C68.5878 26.5344 69.9429 26.5036 71.2453 25.584C70.6909 26.9875 70.3653 28.5231 70.3653 30.0586C70.3653 34.4803 72.4773 35.7212 74.2943 35.7212C76.2698 35.7212 77.8713 34.5421 79.099 32.4697C79.5037 34.3396 80.5375 35.6947 82.4382 35.6947C85.4124 35.6947 87.9952 32.6544 87.9952 30.1598C87.9952 29.4998 87.7136 29.0994 87.3835 29.0994ZM25.6506 33.2704C24.4494 33.2704 23.9786 32.0605 23.9786 30.2566C23.9786 27.1239 26.1214 21.8926 28.3873 21.8926C29.3772 21.8926 29.7511 23.0586 29.7511 24.4841C29.7511 27.6651 27.7141 33.2704 25.6506 33.2704ZM66.7927 23.9209C66.0757 23.0674 65.816 21.9058 65.816 20.8719C65.816 19.596 66.2825 18.518 66.8412 18.518C67.4 18.518 67.5715 19.068 67.5715 19.8335C67.5715 21.1139 67.1139 22.9838 66.7927 23.9209ZM76.107 33.2704C74.906 33.2704 74.4352 31.8801 74.4352 30.2566C74.4352 27.2339 76.5778 21.8926 78.8612 21.8926C79.8513 21.8926 80.2033 23.0498 80.2033 24.4841C80.2033 27.6651 78.2014 33.2704 76.107 33.2704Z" fill="white"/>
</g>
<defs>
<clipPath id="clip0_2197_4372">
<rect width="88" height="28.4974" fill="white" transform="translate(0 9.75128)"/>
</clipPath>
</defs>
</svg>
