<svg width="61" height="48" viewBox="0 0 61 48" fill="none" xmlns="http://www.w3.org/2000/svg">
<g clip-path="url(#clip0_2298_17939)">
<path d="M12.6582 44.5326C11.8827 44.5326 11.3164 44.9237 11.3164 45.672C11.3164 46.3729 11.8087 46.8615 12.5476 46.8615C13.0403 46.8615 13.5331 46.5877 13.8407 46.1961V45.198C13.8407 44.8651 13.4094 44.5326 12.6582 44.5326ZM29.4199 44.3943C29.4564 45.7081 30.2942 46.6584 31.7351 46.6584C32.61 46.6584 33.2753 46.1845 33.5088 45.8867C33.6194 45.9702 33.731 46.0949 33.731 46.3851C33.731 47.0387 32.9424 47.9427 31.1073 47.9427C29.2604 47.9427 27.7568 46.47 27.7568 44.5449C27.7568 42.4252 29.1489 40.9103 31.2062 40.9103C33.0764 40.9103 33.9397 42.2878 33.9397 43.4608C33.9397 43.8068 33.8655 44.1271 33.7174 44.3943H29.4199ZM32.0314 43.5453C32.3268 43.5453 32.3395 43.3722 32.3395 43.1406C32.3268 42.4495 31.7838 41.8096 30.9596 41.8096C29.8882 41.8096 29.4691 42.7074 29.4325 43.5453H32.0314ZM49.4077 44.2701C49.4077 45.8754 49.6304 46.6936 50.6657 46.6936C51.7965 46.6936 52.106 45.6837 52.106 44.7662V43.0149C52.106 42.4134 51.8209 42.18 51.1692 42.2503C50.8987 41.5742 51.7965 41.1438 52.3034 41.0449C52.4619 41.0205 52.6105 40.9961 52.7474 40.9961C53.4605 40.9961 53.7343 41.441 53.7343 42.1059C53.7343 42.3502 53.7104 42.7956 53.7104 44.6382C53.7104 45.4174 53.6978 45.8286 53.6978 45.9575C53.6978 46.5642 53.9786 46.8732 54.6298 46.8024C54.8966 47.4799 54.0044 47.8011 53.4952 47.8953C53.3391 47.9187 53.197 47.9427 53.0798 47.9427C52.4028 47.9427 52.2654 47.5033 52.129 46.8737C52.0333 46.9918 51.9452 47.0884 51.7614 47.2656C51.3178 47.6811 50.7393 47.9309 50.0857 47.9309C49.3711 47.9309 48.7677 47.6567 48.3856 47.2065C47.7949 46.5056 47.7949 45.6021 47.7949 44.2828V43.0154C47.7949 42.4139 47.5112 42.1804 46.859 42.2507C46.588 41.5746 47.4878 41.1442 47.9922 41.0454C48.1521 41.0209 48.2993 40.9965 48.4353 40.9965C49.1489 40.9965 49.4204 41.4415 49.4204 42.1063L49.4077 44.2701ZM46.2926 44.4079C46.2926 42.3253 44.8518 40.9098 42.8564 40.9098C41.0095 40.9098 39.3709 42.3253 39.3709 44.4079C39.3709 46.5169 40.9101 47.9305 42.7949 47.9305C44.7895 47.9305 46.2927 46.4934 46.2927 44.4079M15.3804 46.243C15.3804 46.7742 15.7245 46.9435 16.3284 47.027C16.2913 47.644 15.86 47.8831 15.3556 47.9305C14.7887 47.9778 14.2345 47.7153 14.0132 47.1236C13.7539 47.3589 12.9906 47.9539 11.9929 47.9539C10.6262 47.9539 9.60358 47.0382 9.60358 45.7911C9.60358 44.4726 10.749 43.6915 12.3624 43.6915C12.9175 43.6915 13.4951 43.8068 13.8402 43.9855V43.1026C13.8402 42.3117 13.4951 41.8096 12.5968 41.8096C12.4116 41.8096 12.0056 41.8583 11.6849 41.9802C11.7219 42.1054 11.7472 42.239 11.7472 42.3619C11.7472 42.8448 11.4392 43.2363 10.922 43.2363C10.4658 43.2363 10.1208 42.8687 10.1208 42.3994C10.1208 41.5371 11.2052 40.9093 12.7079 40.9093C13.9025 40.9093 14.6298 41.1925 15.0114 41.6844C15.3556 42.1171 15.3804 42.7824 15.3804 43.7427V46.243ZM44.5315 44.5092C44.5315 46.1094 43.8414 46.9792 42.869 46.9792C42.0068 46.9792 41.1694 46.1099 41.1694 44.212C41.1694 42.7332 41.785 41.81 42.7949 41.81C43.7922 41.8097 44.5315 42.833 44.5315 44.5092ZM20.257 42.0801C20.294 42.5002 20.6513 42.7946 21.0695 42.7946C21.5993 42.7946 21.9196 42.3248 21.9196 41.87C21.9196 41.2291 21.4024 40.8971 20.8848 40.8971C20.294 40.8971 19.6658 41.3412 19.3089 42.0051L19.2841 42.0173C19.1734 41.4274 18.8898 40.9825 18.2986 40.9825C18.1631 40.9825 18.0154 41.0078 17.8555 41.0565C17.3627 41.2043 16.636 41.5849 16.9075 42.262C17.5972 42.1293 17.8433 42.3614 17.8433 42.9629V45.8272C17.8433 46.3959 17.7697 46.6341 17.5723 46.801C17.3871 46.9426 17.1907 47.0012 17.0673 47.0255C16.7841 47.6426 17.3383 47.8348 18.7055 47.8348C20.0727 47.8348 20.5406 47.6431 20.2574 47.0255C20.1341 47.0007 19.7895 46.9421 19.6048 46.801C19.4074 46.6341 19.3216 46.3959 19.3216 45.8272V44.0994C19.3212 42.5592 19.8875 42.1541 20.257 42.0801ZM37.2038 41.0814H38.9649C39.1744 41.5854 38.8912 41.9919 38.4969 42.0295C38.3737 42.0426 38.2381 42.0426 38.1152 42.0426C37.7946 42.0426 37.4748 42.0173 37.2531 42.0173V45.8276C37.2531 46.3964 37.3515 46.6346 37.5484 46.8015C37.7337 46.9431 38.165 47.0017 38.2883 47.026C38.5715 47.6431 37.9057 47.8353 36.539 47.8353C35.1723 47.8353 34.6059 47.6435 34.8886 47.026C35.0115 47.0012 35.2093 46.9426 35.3936 46.8015C35.5905 46.6346 35.6641 46.3964 35.6641 45.8276V41.9915L34.6298 41.9549C34.4202 41.4518 34.7034 41.0936 35.1221 41.0936H35.6402V40.6008C35.6402 39.6031 35.8244 39.0485 36.0711 38.679C36.4522 38.0878 37.1054 37.6818 38.127 37.6818C39.4206 37.6818 40.4671 38.2851 40.4671 39.1961C40.4671 39.5905 40.1961 40.0705 39.6297 40.0705C39.2115 40.0705 38.8172 39.7133 38.8172 39.2707C38.8172 39.085 38.8912 38.8881 38.9892 38.7657C38.842 38.5932 38.534 38.5064 38.2381 38.5064C37.3881 38.5064 37.2038 39.1347 37.2038 39.9229V41.0814ZM25.8608 42.0801C25.8979 42.5002 26.255 42.7946 26.6737 42.7946C27.2036 42.7946 27.5233 42.3248 27.5233 41.87C27.5233 41.2291 27.0062 40.8971 26.489 40.8971C25.8978 40.8971 25.2696 41.3412 24.9132 42.0051L24.8879 42.0173C24.7777 41.4274 24.494 40.9825 23.9028 40.9825C23.7678 40.9825 23.6197 41.0078 23.4598 41.0565C22.9665 41.2043 22.2398 41.5849 22.5112 42.262C23.201 42.1293 23.4466 42.3614 23.4466 42.9629V45.8272C23.4466 46.3959 23.3735 46.6341 23.1761 46.801C22.9914 46.9426 22.7949 47.0012 22.672 47.0255C22.3884 47.6426 22.943 47.8348 24.3093 47.8348C25.676 47.8348 26.1449 47.6431 25.8612 47.0255C25.7384 47.0007 25.3937 46.9421 25.2086 46.801C25.0117 46.6341 24.9254 46.3959 24.9254 45.8272V44.0994C24.9251 42.5592 25.4913 42.1541 25.8608 42.0801ZM58.6395 42.0801C58.6808 42.5002 59.0409 42.7946 59.4614 42.7946C59.9837 42.7946 60.3039 42.3248 60.3039 41.87C60.3039 41.2291 59.7943 40.8971 59.2696 40.8971C58.6808 40.8971 58.0595 41.3412 57.7037 42.005L57.6676 42.0172C57.5597 41.4274 57.2737 40.9824 56.6933 40.9824C56.5489 40.9824 56.4087 41.0078 56.2399 41.0565C55.7541 41.2042 55.0297 41.5849 55.2937 42.2619C55.9858 42.1293 56.2281 42.3613 56.2281 42.9629V45.8271C56.2281 46.3959 56.1574 46.6341 55.9539 46.801C55.7771 46.9426 55.5741 47.0011 55.4564 47.0255C55.1704 47.6425 55.7298 47.8348 57.096 47.8348C58.4627 47.8348 58.925 47.643 58.639 47.0255C58.5218 47.0007 58.1772 46.9421 57.9854 46.801C57.7979 46.6341 57.7149 46.3959 57.7149 45.8271V44.0994C57.7154 42.5592 58.2719 42.1541 58.6395 42.0801ZM0.483398 43.0459C0.483398 46.154 2.62557 47.9947 4.95349 47.9947C7.04739 47.9947 8.51257 46.5225 8.51257 45.2969C8.51257 44.6443 8.10657 44.1698 7.57674 44.1698C7.03477 44.1698 6.57953 44.5374 6.57953 45.1689C6.57953 45.5721 6.80081 45.7976 6.96119 45.9753C6.67746 46.5229 6.07405 46.9735 5.13774 46.9735C3.58629 46.9735 2.46573 45.3574 2.46573 43.0332C2.46573 40.7063 3.53658 39.0803 5.08898 39.0803C6.02529 39.0803 6.62822 39.5361 6.91189 40.0785C6.75157 40.2628 6.53024 40.4845 6.53024 40.8911C6.53024 41.5193 6.98595 41.8883 7.52799 41.8883C8.05782 41.8883 8.46334 41.4096 8.46334 40.7555C8.46334 39.5356 6.99815 38.0582 4.90426 38.0582C2.57592 38.0579 0.483398 40.0781 0.483398 43.0459Z" fill="white"/>
<path d="M20.6545 1.07623L7.58705 13.7181C6.93441 14.2722 6.51758 14.923 6.51758 15.8542C6.51758 16.7811 6.93489 17.4342 7.58705 17.9926L20.6545 30.6302C20.7385 30.716 20.8197 30.7502 20.8885 30.7502C21.0123 30.7502 21.0976 30.6378 21.0939 30.5055C21.0902 30.4277 21.0564 30.3381 20.979 30.2608C17.9118 26.4499 15.68 22.0792 15.68 15.9001C15.68 9.71731 17.9118 5.2608 20.979 1.44712C21.0564 1.37073 21.0902 1.28261 21.0939 1.20287C21.0981 1.0678 21.0123 0.958564 20.8885 0.958564C20.8196 0.957248 20.7385 0.990927 20.6546 1.07623" fill="white"/>
<path d="M30.7028 0.00585938C25.5861 0.00585938 23.5869 7.25671 23.5869 15.8992C23.5869 24.5444 25.5861 31.6987 30.7027 31.6987C33.7733 31.6987 36.3905 29.9006 36.3989 28.4228C36.4002 28.0993 36.2756 27.7894 36.0041 27.5189C34.5488 26.1127 33.9796 24.7076 33.9754 23.4675C33.966 21.1002 36.0196 19.3369 37.9129 19.3369C40.5155 19.3369 42.0505 21.3824 42.0505 24.0315C42.0505 26.5418 40.9811 28.6324 39.8174 30.3067C39.7714 30.3751 39.7508 30.4516 39.7508 30.5186C39.7517 30.6499 39.8291 30.7577 39.9449 30.7577C40.0152 30.7577 40.0977 30.7202 40.1878 30.6297L53.2586 17.9922C53.9112 17.4342 54.328 16.7806 54.328 15.8537C54.328 14.923 53.9107 14.2717 53.2586 13.7176L40.1878 1.07581C40.0982 0.986258 40.0157 0.948272 39.9449 0.948272C39.8281 0.948272 39.7517 1.05703 39.7508 1.18875C39.7508 1.25635 39.7714 1.33178 39.8174 1.40117C40.9806 3.07316 42.0505 5.1661 42.0505 7.6745C42.0505 10.3217 40.5155 12.3692 37.9129 12.3692C36.0196 12.3692 33.966 10.6072 33.9754 8.23944C33.9796 6.99936 34.5488 5.59274 36.0042 4.18803C36.2756 3.91615 36.4003 3.60897 36.3989 3.28504C36.3905 1.80484 33.7733 0.00585938 30.7028 0.00585938Z" fill="white"/>
</g>
<defs>
<clipPath id="clip0_2298_17939">
<rect width="59.8205" height="48" fill="white" transform="translate(0.481445)"/>
</clipPath>
</defs>
</svg>
