<svg width="93" height="48" viewBox="0 0 93 48" fill="none" xmlns="http://www.w3.org/2000/svg">
<path d="M48.1592 16.8228H45.3835L43.8181 19.3612H46.5924L48.1592 16.8228ZM55.3597 23.5018C53.9057 23.6221 51.3367 24.9228 49.9374 27.7649C48.5382 30.6071 48.5331 32.3615 48.5331 32.3615C48.5331 32.3615 49.271 31.5526 50.4023 30.7055C51.5336 29.8584 52.3755 29.5575 52.3755 29.5575C52.3755 29.5575 52.5854 28.514 53.1079 27.4227C53.6159 26.3611 54.4221 25.2558 55.4196 25.005C57.4416 24.496 56.4734 28.1866 54.9882 30.5931C54.1899 31.8865 51.3585 35.6035 48.9209 35.6035C46.4832 35.6035 46.0128 33.2532 46.5269 31.0557C47.0405 28.8586 47.7515 26.0671 51.3079 20.995C54.8642 15.9228 58.7136 12.9158 60.9418 11.6522C63.2303 10.3552 64.1628 10.9236 64.1628 10.9236C64.1628 10.9236 61.2413 12.7231 59.5792 14.8881C57.9901 16.9575 57.0418 19.286 57.7792 20.427C58.4814 21.5142 60.9566 21.5346 63.6822 17.5993C66.3724 13.7146 65.693 11.4047 65.693 11.4047C65.693 11.4047 66.0181 11.2988 66.2364 11.2696C67.5483 11.0949 68.5992 11.4409 70.2265 12.2754C71.9313 13.1499 73.5669 14.5524 75.8081 15.6999C76.4828 14.9606 77.2338 14.1753 78.0237 13.409C75.0023 11.9383 72.7087 9.84199 69.7454 9.64091C67.1661 9.4663 65.1325 10.4062 65.1325 10.4062C65.1325 10.4062 64.3458 9.33487 61.9189 9.68456C59.4919 10.0347 52.0147 13.161 45.6529 23.349C39.9009 32.5603 42.6111 37.8391 46.7456 37.7787C51.2275 37.7128 55.4912 32.7284 56.934 28.618C58.3769 24.5077 56.6716 23.3936 55.3597 23.5018ZM64.1582 14.9425C63.4049 16.7787 62.296 18.0618 61.2046 19.0417C59.8049 20.2988 59.0368 20.2566 58.7043 20.0039C57.8359 19.3426 59.0011 16.8488 61.0235 14.6188C63.0376 12.3976 64.7717 11.7065 64.7717 11.7065C64.7717 11.7326 65.0601 12.7408 64.1582 14.9425ZM89.1163 12.2648C87.0655 13.5841 84.222 14.779 81.4928 14.5157C80.8027 15.2323 80.0624 16.058 79.3198 16.9612C84.0567 17.8956 88.2 14.961 90.4059 12.4607C91.7819 10.9017 92.4614 9.50995 92.4614 9.50995C92.4614 9.50995 91.1476 10.9579 89.1163 12.2648Z" fill="white"/>
<path d="M86.8758 23.8413H83.9571L83.4829 24.5741C83.4829 24.5741 82.8876 23.5 81.8794 23.5171C80.1518 23.5469 78.4228 24.8658 76.4139 27.1534C74.9413 28.8294 72.5004 32.5608 72.5004 32.5608C72.5004 32.5608 70.6275 35.447 69.6801 35.2209C68.0649 34.835 71.0357 28.8586 71.0357 28.8586C71.0357 28.8586 72.5974 27.8941 74.6213 26.1911C75.8956 25.1193 77.3617 23.6449 78.7094 22.2781C79.9349 21.0349 81.3792 19.3469 82.752 17.4976C82.4004 17.5534 82.04 17.591 81.6727 17.6091C80.4416 19.2326 79.1273 20.6857 78.0095 21.8407C76.3456 23.5599 74.815 24.9665 73.7027 25.8637C72.6369 26.7229 71.9533 27.1097 71.9533 27.1097C71.9533 27.1097 73.9865 22.9343 77.3752 18.321C80.7639 13.7081 85.5086 9.42269 85.1366 11.4558C85.0303 12.0396 84.6676 12.8769 84.1201 13.8707C84.5055 13.7903 84.8798 13.69 85.2411 13.5758C86.0575 11.8905 86.3357 10.5015 85.7264 10.1002C83.24 8.46278 76.9159 15.2383 73.7454 19.1736C70.5755 23.1089 67.7064 29.1229 67.7064 29.1229C67.7064 29.1229 67.2104 29.3309 66.662 29.435C66.316 29.5009 66.1683 29.4865 66.1117 29.4642C66.0833 29.4526 66.0801 29.4331 66.0801 29.4331C66.0801 29.4331 68.8688 24.2198 66.0137 23.5283C63.2584 22.8614 58.4844 27.9586 56.787 31.5043C55.6223 33.9368 54.9652 36.9991 56.9626 37.7282C59.1257 38.5181 62.8001 34.5689 63.6638 33.4213C64.5276 32.2734 65.6059 30.3647 65.6059 30.3647C65.6059 30.3647 66.1335 30.3368 66.4219 30.2946C66.9736 30.2133 67.2318 30.1455 67.2318 30.1455C67.2318 30.1455 66.8742 31.0822 66.4874 32.2696C65.7662 34.4839 65.1155 37.652 67.712 37.8011C69.3662 37.8954 71.7931 34.9079 71.7931 34.9079C71.7931 34.9079 71.1402 37.5642 73.2871 37.8011C74.8721 37.9757 77.1787 35.5269 77.1787 35.5269C77.1787 35.5269 76.6763 37.6367 78.2831 37.8224C79.6586 37.9817 81.6114 36.3689 83.2126 34.5944C84.9611 32.657 86.3023 30.5351 86.3023 30.5351H85.2857C85.2857 30.5351 83.0357 33.9503 81.4558 34.8642C80.1588 35.6147 80.6032 34.4124 80.9965 33.7822C81.4303 33.087 86.8744 23.8413 86.8744 23.8418L86.8758 23.8413ZM64.6381 30.2737C64.5982 30.3651 63.8677 31.6362 63.0861 32.6356C62.2442 33.7125 60.7028 35.3333 59.7764 34.9905C58.3279 34.4546 59.9217 31.2991 60.9638 29.7684C62.0059 28.2377 62.1244 28.1342 62.1536 28.0942C62.1829 28.0543 62.2121 28.0176 62.2377 28.065C62.2632 28.1124 62.5948 28.7412 63.2496 29.2868C63.9072 29.8348 64.5397 30.1241 64.5908 30.1422C64.6419 30.1603 64.6785 30.1822 64.6381 30.2732V30.2737ZM65.2897 29.1364C65.1982 29.2887 65.1327 29.2961 64.9428 29.2455C64.6084 29.1549 63.2231 28.5145 63.2338 27.0939C63.2436 25.7096 65.195 24.3535 65.9603 24.9331C66.6745 25.4737 66.3332 26.8557 66.0638 27.5607C65.795 28.2651 65.3496 29.0365 65.2897 29.1364ZM78.5492 32.5608C78.1637 33.0893 77.8414 33.5667 77.5507 33.902C76.9294 34.6195 76.5239 34.9534 76.1626 35.0416C75.9806 35.0857 75.7549 35.0751 75.6054 34.9845C75.075 34.6618 75.4465 33.4051 76.3698 31.7156C77.2145 30.1715 78.1907 28.6264 79.7951 26.8478C81.4061 25.0622 82.0224 24.9763 82.4733 24.9967C82.8527 25.013 82.9066 25.4119 82.9066 25.4119C82.9066 25.4119 82.8797 25.5043 82.8193 25.6088C82.2876 26.5306 79.6089 31.1077 78.5487 32.5608H78.5492ZM35.4963 34.7946C33.7265 33.7009 31.456 32.9992 28.8475 32.9765C22.1277 32.9179 14.8111 36.1827 9.85552 36.2268C4.01061 36.2779 3.71943 31.7811 4.15272 29.3119C5.08523 23.9922 8.85846 18.9173 11.2845 16.2414C13.7109 13.5656 16.2535 11.4893 18.3675 10.9585C20.4814 10.4276 20.2826 12.0354 20.024 12.2551C19.7569 12.2606 19.2447 12.3182 18.954 12.5193C18.4989 12.8332 17.891 13.4081 17.8529 14.3198C17.7874 15.7241 19.6023 15.9702 20.9142 13.0297C21.8091 11.0239 20.3899 9.66278 19.2113 9.53182C17.5947 9.35164 15.1241 9.91356 12.1752 11.8088C7.04266 15.1069 0.177476 22.4309 0.00239835 30.5569C-0.0974471 35.1926 2.93089 37.8011 7.08585 37.8011C11.2408 37.8011 16.8818 35.2566 22.3901 35.1916C25.8006 35.1624 28.0079 36.3577 29.1257 38.3045C29.1257 38.3045 30.2365 36.4567 32.7104 36.3577C35.1577 36.2593 37.8522 36.9452 40.0641 38.5C39.3262 37.4337 37.2401 35.872 35.4958 34.7946H35.4963Z" fill="white"/>
<path d="M20.1929 16.5386C17.3759 15.8207 12.6976 20.616 10.7262 24.5188C9.51042 26.9262 8.97729 29.9518 11.1418 30.739C13.3064 31.5261 16.9789 27.5797 17.8426 26.4321C18.7064 25.2841 20.12 22.9849 20.12 22.9849C20.12 22.9849 20.5538 22.9013 20.838 22.8354C21.1222 22.7694 21.5815 22.6385 21.5815 22.6385C21.5815 22.6385 21.0488 23.5877 20.5682 24.5606C19.9984 25.7142 18.4501 29.5543 21.4394 30.706C24.2954 31.8061 28.3612 27.2184 28.5749 27.1315C28.5749 27.1315 27.3646 30.2578 29.2445 30.739C31.3074 31.2665 33.5681 28.6236 33.5681 28.6236C33.5681 28.6236 33.092 30.6075 34.6993 30.7938C37.5777 31.1267 42.6688 23.7646 42.6688 23.7646H41.6518C41.6518 23.7646 39.0609 27.0985 37.815 27.7872C36.569 28.4759 37.0171 27.2523 37.3557 26.7052C37.7876 26.0091 43.2916 16.8121 43.2916 16.8121H40.3729L40.0343 17.3476C40.0343 17.3476 39.4329 16.4295 38.4275 16.495C35.5023 16.6858 32.0216 21.3484 30.491 23.4033C28.9608 25.4588 25.6594 29.3829 23.9211 28.6835C22.0269 27.921 23.9104 24.4204 25.1564 22.3649C26.5129 20.1275 28.9171 17.9114 29.8677 17.8942C31.0376 17.8724 30.5783 18.9326 30.5783 18.9326C30.5783 18.9326 29.7038 18.8234 29.0699 19.6213C28.6213 20.1855 28.2498 21.0094 28.6761 21.4575C29.3648 22.1815 30.2615 21.4464 30.797 20.6262C32.4665 18.0707 31.2451 16.7239 29.9337 16.5275C27.1399 16.1081 24.5662 19.6974 22.6097 21.0312C21.2522 21.9558 20.6852 21.8838 20.6852 21.8838C20.6852 21.8838 23.0402 17.264 20.1934 16.5381L20.1929 16.5386ZM32.8408 24.803C33.6855 23.2584 34.8363 21.7673 36.334 19.8981C37.8317 18.0289 38.577 17.8775 39.028 17.8979C39.4074 17.9146 39.4613 18.3131 39.4613 18.3131C39.4613 18.3131 36.2072 23.9829 35.0267 25.6009C34.6413 26.1293 34.3116 26.577 34.0208 26.9128C33.3995 27.6303 32.9481 27.9772 32.5998 28.0636C32.4177 28.1081 32.192 28.097 32.042 28.006C31.5117 27.6832 31.9162 26.492 32.8403 24.803H32.8408ZM19.0306 22.9631C18.9902 23.0541 18.0609 24.5908 17.2798 25.5902C16.4383 26.6671 14.883 28.2944 13.9566 27.9516C12.5081 27.4157 14.0532 24.282 15.0953 22.7518C16.1374 21.2211 16.2902 21.0242 16.3199 20.9848C16.3491 20.9443 16.3779 20.9077 16.4035 20.9555C16.429 21.0029 16.7606 21.6846 17.4785 22.1434C18.1965 22.6027 18.9326 22.814 18.9837 22.8321C19.0347 22.8502 19.0714 22.8725 19.031 22.9631H19.0306ZM20.2422 20.571C19.9728 21.2764 19.7323 21.7208 19.6826 21.8258C19.6027 21.9939 19.4025 21.94 19.4025 21.94C19.1745 21.9298 17.4019 21.5253 17.4121 20.1047C17.4219 18.7204 19.3738 17.3643 20.1386 17.9439C20.8529 18.4844 20.5115 19.8665 20.2422 20.571ZM84.6796 36.1157C84.5092 36.0191 84.3197 35.9713 84.1112 35.9713C83.9027 35.9713 83.7132 36.0196 83.5428 36.1157C83.3723 36.2123 83.2386 36.3433 83.1406 36.51C83.0431 36.6763 82.9939 36.8574 82.9939 37.0524C82.9939 37.2475 83.0426 37.4318 83.1406 37.5972C83.2381 37.762 83.3723 37.893 83.5428 37.9891C83.7132 38.0857 83.9027 38.1336 84.1112 38.1336C84.3197 38.1336 84.5092 38.0853 84.6796 37.9891C84.8501 37.893 84.9838 37.762 85.0818 37.5972C85.1793 37.4323 85.2285 37.2507 85.2285 37.0524C85.2285 36.8541 85.1798 36.6763 85.0818 36.51C84.9843 36.3438 84.8501 36.2123 84.6796 36.1157ZM84.8798 37.5001C84.8059 37.632 84.7019 37.7356 84.5686 37.8113C84.4354 37.8865 84.2826 37.9241 84.1112 37.9241C83.9398 37.9241 83.787 37.8865 83.6538 37.8113C83.5205 37.736 83.4169 37.6325 83.3426 37.5001C83.2688 37.3682 83.2316 37.2187 83.2316 37.0524C83.2316 36.8862 83.2688 36.7408 83.3426 36.6089C83.4165 36.477 83.521 36.3735 83.6556 36.2978C83.7903 36.2221 83.9422 36.1849 84.1112 36.1849C84.2802 36.1849 84.4321 36.2226 84.5668 36.2978C84.7014 36.373 84.8059 36.4766 84.8798 36.6089C84.9536 36.7408 84.9908 36.889 84.9908 37.0524C84.9908 37.2159 84.9536 37.3682 84.8798 37.5001Z" fill="white"/>
<path d="M84.531 37.0348C84.5625 36.9832 84.5783 36.9256 84.5783 36.8625C84.5783 36.7752 84.55 36.7023 84.4933 36.6428C84.4367 36.5834 84.3605 36.5536 84.2658 36.5536H83.6992V37.5321H83.9486V37.1755H84.1385L84.3684 37.5321H84.6536L84.3963 37.1518C84.4543 37.1253 84.4994 37.0863 84.531 37.0348ZM84.2932 36.9317C84.2746 36.9489 84.2495 36.9572 84.218 36.9572H83.9486V36.7673H84.218C84.2495 36.7673 84.2746 36.7761 84.2932 36.7928C84.3118 36.81 84.321 36.8332 84.321 36.862C84.321 36.8908 84.3118 36.914 84.2932 36.9312V36.9317Z" fill="white"/>
</svg>
