<svg width="95" height="48" viewBox="0 0 95 48" fill="none" xmlns="http://www.w3.org/2000/svg">
<rect x="1.02002" y="12.1406" width="92.7188" height="23.7188" stroke="white" stroke-width="0.71875"/>
<rect x="1.02002" y="12.1406" width="92.7188" height="23.7188" stroke="white" stroke-opacity="0.2" stroke-width="0.71875"/>
<path d="M70.3384 12.5H1.37939V35.5H70.3384V12.5Z" fill="white"/>
<path d="M93.3179 12.5H70.3384V35.5H93.3179V12.5Z" fill="black"/>
<path d="M78.0392 27.4715C78.4488 27.1233 78.5102 26.7137 78.5102 26.345V24.768H76.2983V26.9185C76.2983 27.2257 76.0525 27.4715 75.7453 27.4715C75.4381 27.4715 75.2128 27.2257 75.2128 26.9185V20.8357C75.2128 20.5285 75.4381 20.2827 75.7453 20.2827C76.0525 20.2827 76.2983 20.5285 76.2983 20.8357V22.9862H78.5102V20.7537C78.5102 19.5249 77.7115 18.5009 75.7249 18.5009C73.6972 18.5009 72.9395 19.5249 72.9395 20.7537V27.1028C72.9395 28.3317 73.9021 29.2533 75.1514 29.2533H75.8273L78.0392 27.4715Z" fill="white"/>
<path d="M86.7436 27.7173V20.7538H85.228V18.6852H90.7374V20.7538H89.2013V29.2328H88.5459L86.7436 27.7173Z" fill="white"/>
<path d="M87.7268 29.2533L82.3608 24.7475L76.79 29.2533H87.7268Z" fill="white"/>
<path d="M83.8969 18.7057H80.8248L79.0225 26.7342L82.3608 24.0307L85.8426 26.939L83.8969 18.7057ZM81.7669 23.5392L82.3608 20.508L82.9548 23.5392H81.7669Z" fill="white"/>
<path d="M91.1675 19.2587C91.1675 18.89 91.4542 18.6033 91.8229 18.6033C92.1915 18.6033 92.4783 18.89 92.4783 19.2587C92.4783 19.6273 92.1915 19.914 91.8229 19.914C91.4542 19.914 91.1675 19.6273 91.1675 19.2587ZM92.3554 19.2587C92.3554 18.9514 92.1096 18.7262 91.8229 18.7262C91.5157 18.7262 91.2699 18.9719 91.2699 19.2587C91.2699 19.5659 91.5157 19.8116 91.8229 19.8116C92.1301 19.7912 92.3554 19.5454 92.3554 19.2587ZM91.6795 19.2996V19.6273H91.5566V18.849H91.8024C91.9458 18.849 92.0891 18.89 92.0891 19.0538C92.0891 19.1358 92.0277 19.2177 91.9253 19.2382C92.0277 19.2587 92.0482 19.2996 92.0482 19.3815C92.0482 19.4635 92.0686 19.5454 92.0891 19.6068H91.9458C91.9458 19.5659 91.9253 19.5044 91.9253 19.4635C91.9253 19.402 91.9253 19.3406 91.8843 19.2996C91.8638 19.2587 91.8229 19.2791 91.7819 19.2587H91.6795V19.2996ZM91.8024 19.1767C91.9253 19.1767 91.9458 19.1358 91.9458 19.0743C91.9458 19.0129 91.9253 18.9924 91.8229 18.9924H91.6795V19.1972H91.8024V19.1767Z" fill="white"/>
<path d="M23.13 19.443L22.4746 22.6585H18.5423L19.1977 19.443H14.6714L12.8486 28.2702H17.3749L18.0917 24.8499H22.0241L21.3277 28.2702H25.854L27.6563 19.443H23.13Z" fill="black"/>
<path d="M47.2161 26.0788L48.5883 19.443H44.0621L42.2598 28.2702H50.8208L51.2509 26.0788H47.2161Z" fill="black"/>
<path d="M64.5834 19.443H51.2299L50.7793 21.6344H55.1827L53.8105 28.2702H58.3367L59.7089 21.6344H64.1328L64.5834 19.443Z" fill="black"/>
<path d="M42.4644 23.8874C41.8909 26.4475 38.0405 28.516 33.8419 28.516C29.6434 28.516 26.6941 26.4475 27.2676 23.8874C27.841 21.3273 31.6914 19.2587 35.89 19.2587C40.0886 19.2587 43.0378 21.3273 42.4644 23.8874ZM35.2756 21.2249C33.5962 21.2249 32.0396 22.4127 31.8143 23.8874C31.589 25.362 32.7769 26.5499 34.4564 26.5499C36.1358 26.5499 37.6923 25.362 37.9176 23.8874C38.1429 22.4127 36.955 21.2249 35.2756 21.2249Z" fill="black"/>
<path d="M61.5317 28.3522C61.204 28.3522 60.9173 28.0859 60.9173 27.7377C60.9173 27.3896 61.1835 27.1233 61.5317 27.1233C61.8799 27.1233 62.1461 27.3896 62.1461 27.7377C62.1461 28.0859 61.8594 28.3522 61.5317 28.3522ZM61.5317 28.4955C61.9413 28.4955 62.269 28.1678 62.269 27.7582C62.269 27.3486 61.9413 27.0209 61.5317 27.0209C61.1221 27.0209 60.7739 27.3486 60.7739 27.7582C60.7739 28.1678 61.1016 28.4955 61.5317 28.4955ZM61.6956 27.8197C61.8389 27.7992 61.9209 27.7582 61.9209 27.5944C61.9209 27.5124 61.9004 27.4305 61.8185 27.3896C61.757 27.3486 61.6751 27.3486 61.5932 27.3486H61.204V28.1678H61.3679V27.8197H61.5317L61.716 28.1678H61.9004L61.6956 27.8197ZM61.3679 27.6968V27.4715H61.5727C61.6546 27.4715 61.757 27.4715 61.757 27.5739C61.757 27.6763 61.6956 27.6968 61.6136 27.6968H61.3679Z" fill="black"/>
</svg>
