<svg width="97" height="48" viewBox="0 0 97 48" fill="none" xmlns="http://www.w3.org/2000/svg">
<path d="M46.3677 18.0002C47.7142 18.0003 49.018 18.3363 50.3813 18.9035V21.3058C49.3709 20.7722 47.8599 20.1642 46.5259 20.1642C45.1395 20.1643 44.4839 20.6366 44.4839 21.2668C44.4841 22.3521 46.0878 22.5609 47.7124 23.1701C49.0093 23.6575 50.8208 24.4376 50.8208 26.6213C50.8208 28.6213 48.9154 30.0017 46.1646 30.0002C44.8328 30.0001 43.5439 29.7093 42.1323 29.1057V26.6945C43.1421 27.2266 44.7138 27.8369 46.0083 27.8371C47.3935 27.8356 48.1421 27.3635 48.1421 26.7346C48.1419 25.6493 46.5846 25.4269 44.9614 24.8205C43.6652 24.3345 41.8032 23.5617 41.8032 21.3781C41.8035 19.3782 43.6459 18.0002 46.3677 18.0002ZM58.4478 18.0021C60.5746 18.0022 62.4404 19.0462 63.5679 20.8615L61.646 22.0519C61.604 21.9791 60.6061 20.2726 58.4478 20.2726C56.3049 20.2727 54.693 21.8821 54.6929 24.0139C54.6929 26.105 56.3498 27.7424 58.4087 27.7424C60.5088 27.7423 61.3496 26.4818 61.5015 25.6262H58.2388V23.3967H63.9546V24.7062C63.9545 27.7498 61.5004 30.0002 58.3667 30.0002C54.9879 29.9999 52.3413 27.3583 52.3413 23.9885C52.3415 20.6872 55.0815 18.0021 58.4478 18.0021ZM21.2417 18.0002C24.5302 18.0003 27.2065 20.6726 27.2065 23.9543C27.2065 27.3383 24.5555 29.9875 21.1724 29.9875C17.9344 29.9872 15.3003 27.2765 15.3003 23.9416C15.3004 20.664 17.9651 18.0002 21.2417 18.0002ZM37.0161 25.3068V18.3674H39.4634V29.6369H37.355L31.8999 22.4738V29.6369H29.4536V18.3674H31.7388L37.0161 25.3068ZM84.6118 20.6555H81.186V29.6369H78.7065V20.6555H75.2798V18.3674H84.6118V20.6555ZM12.9692 29.6359H10.4907V18.3683H12.9692V29.6359ZM94.9604 18.3693C94.6209 19.0696 94.3413 19.8096 94.1333 20.5744H88.9263V22.8596H93.7388C93.7108 23.1901 93.6958 23.5241 93.6958 23.8644C93.6958 24.2692 93.7166 24.6697 93.7495 25.0646H88.9263V27.4299H94.1899C94.4063 28.1974 94.6917 28.9358 95.0376 29.6359H86.4653V18.3674H94.9604V18.3693ZM71.5972 18.3703L76.3931 29.6349H73.8003L72.9038 27.4172H67.8755L66.979 29.6349H64.4517L69.2456 18.3674L71.5972 18.3703ZM2.86084 27.382H8.4585V29.634H0.382324V18.3683H2.86084V27.382ZM21.2661 20.3615C19.2514 20.3615 17.6735 21.9569 17.6733 23.9933C17.6733 26.0383 19.2295 27.6408 21.2134 27.6408C23.2709 27.6408 24.8188 26.061 24.8188 23.967C24.8188 21.9472 23.2598 20.3616 21.2661 20.3615ZM68.7153 25.3381H72.0718L70.3882 21.2658L68.7153 25.3381ZM96.186 18.3674C96.4009 18.3674 96.5836 18.4407 96.7368 18.5939C96.8858 18.7444 96.9623 18.9245 96.9634 19.1379C96.9635 19.3542 96.8887 19.5343 96.7368 19.6887C96.5836 19.8427 96.4016 19.9181 96.186 19.9182C95.9712 19.9182 95.7901 19.8428 95.6382 19.6887C95.4887 19.54 95.4146 19.3561 95.4146 19.1379C95.4146 18.9274 95.4889 18.7463 95.6392 18.5939C95.7901 18.4425 95.9711 18.3692 96.186 18.3674ZM96.186 18.4719C96.004 18.4718 95.8479 18.5337 95.7163 18.6701C95.5871 18.7969 95.523 18.9565 95.5229 19.1379C95.5229 19.3241 95.587 19.4837 95.7163 19.6144C95.8432 19.7478 96.0023 19.8107 96.186 19.8107C96.3725 19.8107 96.5285 19.7479 96.6597 19.6144C96.7895 19.4837 96.8511 19.3241 96.8511 19.1379C96.851 18.9565 96.7893 18.8008 96.6597 18.6701C96.5284 18.5337 96.3726 18.4719 96.186 18.4719ZM96.1714 18.7101C96.2786 18.7101 96.3559 18.7217 96.4048 18.7443C96.4921 18.7819 96.5356 18.8484 96.5366 18.9582C96.5366 19.0344 96.5105 19.0894 96.4526 19.1252C96.4239 19.1439 96.3826 19.1595 96.3306 19.1652C96.3953 19.1765 96.4432 19.2051 96.4751 19.2512C96.5065 19.2962 96.522 19.3378 96.522 19.382V19.5099C96.5247 19.5314 96.5258 19.5454 96.5337 19.5529L96.5386 19.5627H96.397C96.397 19.5627 96.397 19.5605 96.395 19.5558C96.395 19.5531 96.3953 19.5526 96.3921 19.5451L96.3901 19.5178V19.4494C96.3901 19.3527 96.3621 19.288 96.3091 19.2551C96.2786 19.2362 96.2211 19.2305 96.1421 19.2267H96.0229V19.5627H95.8755V18.7101H96.1714ZM96.0229 19.1242H96.1606C96.221 19.1242 96.2693 19.1167 96.3003 19.1037C96.3591 19.0812 96.3891 19.0367 96.3901 18.9689C96.39 18.9117 96.3708 18.8684 96.3315 18.8459C96.2963 18.8262 96.2351 18.8127 96.1519 18.8127H96.0229V19.1242Z" fill="white"/>
</svg>
