<svg width="106" height="48" viewBox="0 0 106 48" fill="none" xmlns="http://www.w3.org/2000/svg">
<g clip-path="url(#clip0_2292_17767)">
<g clip-path="url(#clip1_2292_17767)">
<path fill-rule="evenodd" clip-rule="evenodd" d="M66.5764 22.9578C64.7537 28.5615 59.6324 32.9214 53.1402 32.9214C46.2562 32.9214 41.6278 28.6203 39.7697 23.0795C41.7028 28.2413 46.9635 31.942 53.1505 31.942C59.3849 31.942 64.6798 28.1828 66.5764 22.9578ZM39.7388 14.4067C41.5696 8.81741 45.9012 4.5 53.1402 4.5C59.8688 4.5 64.8134 8.87646 66.6061 14.529C64.7356 9.26107 59.4168 5.45984 53.1504 5.45984C46.9309 5.45984 41.6472 9.20201 39.7388 14.4067Z" fill="white"/>
<path fill-rule="evenodd" clip-rule="evenodd" d="M53.425 13.0274C53.512 12.8999 53.7726 12.9849 53.9575 12.9893C54.2077 12.9942 54.148 13.3575 54.4909 13.2851C54.8335 13.2132 54.8381 13.6071 55.3272 13.5933C55.8192 13.578 55.2295 13.7624 55.2295 13.7624C55.2295 13.7624 54.9261 13.6178 54.7287 13.7142C54.6258 13.765 54.7677 13.6855 54.5949 13.5445C54.3252 13.327 54.3607 13.5858 53.9081 13.2059C53.5902 12.9385 53.2839 13.2378 53.425 13.0274ZM55.8859 22.9468C56.081 23.0246 56.3239 23.2173 56.4364 23.5099C56.7015 24.2041 56.3075 23.6415 56.3075 24.6881C56.3075 25.6518 56.0321 25.4955 56.0321 25.4955C56.0321 25.4955 55.9725 26.6344 55.3776 27.3338C54.9979 27.7103 55.2928 28.0221 55.2928 28.0221C55.2928 28.0221 55.1638 28.0923 54.9779 28.9185C54.9184 29.1862 55.2644 29.5986 55.5661 29.4957C55.7904 29.4188 55.0177 29.3452 55.8554 28.9955C56.1788 28.8605 55.9143 28.6068 55.9143 28.6068C55.9143 28.6068 56.4571 28.5666 56.7634 27.7564C57.303 27.8339 57.1024 27.5075 58.2143 27.2708C58.5082 27.2079 58.5703 27.1208 58.5341 26.8473C58.4972 26.575 58.8964 26.8873 59.9979 25.7783C60.8665 24.9026 60.5535 24.7056 61.1532 24.3874C61.7875 24.0539 61.8457 24.4172 62.058 24.144C62.5442 23.5227 62.372 23.561 62.5741 23.1653L62.7174 22.9456L55.8859 22.9468ZM49.7781 13.7366C49.5977 13.2969 49.6098 12.5843 49.9954 11.9255C50.2382 11.5139 50.882 11.3316 51.4442 11.5483C52.0753 11.057 52.2254 11.5856 52.784 11.3467C53.5176 11.0325 53.1066 12.1787 53.8176 12.469C54.1111 11.696 53.1478 11.1155 53.7519 10.7506C54.1831 10.4913 54.508 10.3303 54.6844 9.9818C54.9364 9.48635 55.035 9.12438 55.2282 9.05859C55.6761 8.90829 55.5796 8.4881 55.5796 8.4881C55.5796 8.4881 56.0552 8.6263 56.4262 8.28285C56.1433 8.13276 55.7305 8.00256 55.8391 7.7031C55.9661 7.34923 56.9255 8.06855 57.2084 7.48816C56.6391 7.24239 56.0567 6.70958 55.7085 6.58686C55.4689 6.84368 55.3203 6.74032 55.0121 6.49907C54.491 6.09215 54.447 6.48002 54.1213 6.19899C53.8608 6.71558 54.2522 6.67454 54.3735 6.80389C54.7083 7.16577 54.0343 6.47865 54.0992 7.40217C54.1162 7.64226 53.7577 7.68594 53.4908 7.16577C53.3517 6.89515 52.2444 6.95273 52.0771 6.69359C52.2297 6.39234 53.533 5.31904 55.535 5.57639C52.6273 4.44889 48.6986 5.68154 48.6594 6.10994C48.2679 6.35255 48.4026 6.62885 48.2074 6.69359C47.8695 6.80527 47.4997 7.82667 47.4997 7.82667C47.4997 7.82667 47.7104 7.96551 47.0532 8.6922C46.5117 9.29047 46.3511 10.1977 46.3511 10.1977C46.3511 10.1977 46.7092 10.844 46.6414 11.5891C46.5903 12.1569 46.5661 11.736 46.8165 12.1479C46.962 12.3888 47.1212 13.2303 47.218 12.9021C47.4034 12.2752 46.8812 11.6962 46.9674 11.0732C46.9867 11.1508 47.1682 10.8267 47.1612 11.1201C47.1411 11.8894 48.1206 13.3716 48.1206 13.3716C48.1206 13.3716 47.755 13.7373 48.1363 13.7373L49.7781 13.7366Z" fill="white"/>
<path d="M28.9453 15.7979H26.7372L27.0667 16.1857V19.0481C27.0667 19.6926 26.6353 19.9639 25.991 19.9639C25.347 19.9639 24.9147 19.6926 24.9147 19.0481V16.1857L25.2448 15.7979H23.0371L23.3667 16.1857V19.0948C23.3667 20.5234 24.1766 21.074 25.991 21.074C27.8057 21.074 28.6155 20.5234 28.6155 19.0948V16.1857L28.9453 15.7979Z" fill="white"/>
<path d="M36.603 15.7979H34.74L35.0715 16.1857V18.7926L32.4001 15.7979H30.7256L31.0565 16.1857V20.5849L30.7256 20.9728H32.5873L32.2578 20.5849V17.9326L35.0947 20.9728H36.2729V16.1857L36.603 15.7979Z" fill="white"/>
<path d="M40.894 20.9728L40.5639 20.5849V16.1857L40.894 15.7979H38.6704L39.0005 16.1857V20.5849L38.6704 20.9728H40.894Z" fill="white"/>
<path d="M48.229 15.7979H46.3587L46.6889 16.1857L45.3695 19.0336L44.0963 16.1857L44.4268 15.7979H42.2261L44.6697 20.9728H45.7617L48.229 15.7979Z" fill="white"/>
<path d="M54.4691 20.9728V19.5689L54.0762 19.8948H51.3971V18.9006H53.0938L53.4796 19.2275V17.5431L53.0938 17.8695H51.3971V16.8759H54.0762L54.4691 17.2021V15.7979H49.5356L49.8657 16.1857V20.5849L49.5356 20.9728H54.4691Z" fill="white"/>
<path fill-rule="evenodd" clip-rule="evenodd" d="M61.9815 20.9728L60.5611 18.9321C61.2592 18.6522 61.7455 18.1173 61.7455 17.3651C61.7455 16.5032 61.212 15.7979 59.7188 15.7979H56.4512L56.782 16.1857V20.5849L56.4512 20.9728H58.6434L58.3139 20.5849V19.1185H58.9726L59.9771 20.5849L59.6483 20.9728H61.9815ZM60.1759 17.4734C60.1759 17.8461 59.814 18.1489 59.3106 18.1489H58.314V16.8759H59.4995C59.8444 16.8759 60.1759 17.0477 60.1759 17.4734Z" fill="white"/>
<path d="M68.6179 19.4588C68.6179 18.6362 67.9496 18.1785 66.9831 17.8681C66.3549 17.6747 65.4675 17.5353 65.4675 17.1234C65.4675 16.9214 65.7103 16.7813 66.1348 16.7813C66.7016 16.7813 67.6273 17.0145 68.3496 17.3557V15.6265L67.934 16.0216C67.4939 15.8429 66.7315 15.6569 66.2058 15.6569C64.4237 15.6569 63.8486 16.4327 63.8486 17.1393C63.8486 18.1009 64.4929 18.5202 65.507 18.8694C66.2598 19.125 66.9594 19.1485 66.9594 19.5742C66.9594 19.9401 66.5282 19.9866 66.3081 19.9866C65.7504 19.9866 64.7601 19.792 63.88 19.2261V21.142L64.2967 20.6919C64.7059 20.8478 65.6248 21.1109 66.3787 21.1109C67.9254 21.1107 68.6179 20.4359 68.6179 19.4588Z" fill="white"/>
<path fill-rule="evenodd" clip-rule="evenodd" d="M76.456 20.9728L73.8792 15.7979H72.1114L72.2991 16.1857L69.9658 20.9728H71.8912L71.5612 20.5849L71.82 20.0423H74.3181L74.5691 20.5849L74.239 20.9728H76.456ZM73.9338 19.1111H72.1965L73.0617 17.2568L73.9338 19.1111Z" fill="white"/>
<path d="M82.6656 20.9728V19.5689L82.2717 19.8948H79.7507V16.1857L80.0799 15.7979H77.8877L78.2178 16.1857V20.5849L77.8877 20.9728H82.6656Z" fill="white"/>
<path d="M81.2628 16.5139C81.2628 16.8763 81.5592 17.1684 81.9242 17.1684C82.2924 17.1684 82.5888 16.8763 82.5888 16.5139C82.5888 16.1521 82.2924 15.8591 81.9242 15.8591C81.5592 15.8591 81.2628 16.1519 81.2628 16.5139ZM81.1934 16.5139C81.1934 16.1151 81.521 15.7914 81.9242 15.7914C82.3298 15.7914 82.6574 16.1151 82.6574 16.5139C82.6574 16.9132 82.3298 17.2374 81.9242 17.2374C81.521 17.2374 81.1934 16.9132 81.1934 16.5139Z" fill="white"/>
<path fill-rule="evenodd" clip-rule="evenodd" d="M82.2009 16.2322C82.1284 16.1717 82.0426 16.144 81.9482 16.144C81.7329 16.144 81.5723 16.3087 81.5723 16.5166C81.5723 16.7265 81.7298 16.8936 81.9451 16.8936C82.0442 16.8936 82.1378 16.8583 82.2111 16.7941V16.6985C82.144 16.7772 82.0465 16.8278 81.9428 16.8278C81.7704 16.8278 81.644 16.6796 81.644 16.5165C81.644 16.3531 81.7719 16.2086 81.9443 16.2086C82.0481 16.2086 82.1323 16.2499 82.2009 16.3251V16.2322Z" fill="white"/>
<path d="M4.40593 39.8852L4.17821 40.1465V42.1141C4.17821 42.3584 4.14197 42.5651 4.06961 42.7345C3.99723 42.9033 3.88862 43.0407 3.74399 43.1456C3.59914 43.2509 3.41364 43.3285 3.18781 43.3789C2.96177 43.4292 2.68825 43.4543 2.36683 43.4543C2.04721 43.4543 1.77495 43.4292 1.54975 43.3789C1.32476 43.3285 1.13895 43.2509 0.992315 43.1456C0.845683 43.0407 0.736338 42.903 0.663968 42.733C0.591596 42.563 0.555358 42.3571 0.555358 42.1141V40.1465L0.327637 39.8852H1.85299L1.62527 40.1465V42.0836C1.62527 42.2919 1.69092 42.4473 1.82243 42.5499C1.95393 42.6524 2.13544 42.7035 2.36673 42.7035C2.59803 42.7035 2.77995 42.653 2.9123 42.5514C3.04465 42.4496 3.11092 42.2939 3.11092 42.0837V40.1466L2.8833 39.8853L4.40593 39.8852Z" fill="white"/>
<path d="M10.256 39.8852L10.0282 40.1465V43.3854H9.21257L7.2554 41.3279V43.124L7.48323 43.3853H6.19873L6.42655 43.124V40.1465L6.19873 39.8852H7.35351L9.19674 41.9118V40.1465L8.9689 39.8852H10.256Z" fill="white"/>
<path d="M13.7691 43.3853H12.2354L12.4631 43.124V40.1465L12.2354 39.8852H13.7691L13.5414 40.1465V43.124L13.7691 43.3853Z" fill="white"/>
<path d="M19.4005 39.8852L17.6977 43.3854H16.9428L15.2559 39.8852H16.7761L16.5482 40.1465L17.4276 42.0732L18.3386 40.1465L18.1109 39.8852H19.4005Z" fill="white"/>
<path d="M24.2701 43.3853H20.8643L21.0921 43.124V40.1465L20.8643 39.8852H24.2701V40.8358L23.9974 40.6153H22.1488V41.2869H23.3194L23.5868 41.0662V42.2042L23.3194 41.9836H22.1488V42.6551H23.9974L24.2701 42.4346V43.3853Z" fill="white"/>
<path d="M30.012 43.3853H28.4018L28.6296 43.124L27.9357 42.1323H27.4801V43.124L27.708 43.3853H26.1958L26.4234 43.124V40.1465L26.1958 39.8852H28.4521C28.9395 39.8852 29.2942 39.9827 29.5167 40.1772C29.7391 40.3721 29.8503 40.6281 29.8503 40.9457C29.8503 41.19 29.777 41.4029 29.6305 41.5839C29.4841 41.765 29.2844 41.9051 29.0321 42.0043L30.012 43.3853ZM28.7648 41.0176C28.7648 40.9254 28.7431 40.8493 28.6999 40.7896C28.6565 40.7299 28.5996 40.6858 28.5292 40.6575C28.4586 40.6294 28.3818 40.6153 28.2986 40.6153H27.4803V41.4764H28.1689C28.3401 41.4764 28.4822 41.4319 28.5954 41.343C28.7082 41.2541 28.7648 41.1455 28.7648 41.0176Z" fill="white"/>
<path d="M35.1507 42.3622C35.1507 42.5314 35.1204 42.6834 35.0594 42.8184C34.9985 42.9533 34.904 43.0704 34.7762 43.1696C34.648 43.2684 34.4874 43.3449 34.2941 43.3986C34.1007 43.4527 33.8718 43.4795 33.6068 43.4795C33.4462 43.4795 33.2735 43.4641 33.089 43.4335C32.9045 43.4025 32.7263 43.3635 32.5542 43.3154C32.382 43.2678 32.2536 43.2276 32.1689 43.1952L31.8802 43.5V42.2036C32.1556 42.3779 32.4483 42.507 32.7581 42.5918C33.068 42.6764 33.334 42.7187 33.5566 42.7187C33.6711 42.7187 33.775 42.6994 33.8676 42.6611C33.9604 42.6226 34.0068 42.5487 34.0068 42.4391C34.0068 42.3521 33.9661 42.2855 33.8848 42.2394C33.8037 42.1933 33.654 42.1419 33.436 42.0845C33.2178 42.0273 33.0736 41.9867 33.0029 41.9626C32.618 41.8331 32.3311 41.6812 32.1423 41.508C31.9533 41.3346 31.8589 41.0958 31.8589 40.7916C31.8589 40.6191 31.9114 40.4574 32.0164 40.3062C32.1214 40.155 32.2972 40.0312 32.5435 39.9345C32.7898 39.8382 33.1044 39.7898 33.4876 39.7898C33.5758 39.7898 33.6702 39.7962 33.771 39.809C33.8716 39.8218 33.9827 39.8411 34.1046 39.8667C34.2263 39.8923 34.3341 39.9192 34.4276 39.9475C34.5213 39.976 34.605 40.005 34.6792 40.036L34.968 39.7697V40.9406C34.7967 40.8619 34.617 40.7933 34.429 40.7343C34.2409 40.6751 34.0604 40.6301 33.8874 40.5984C33.7143 40.5667 33.5644 40.5511 33.4371 40.5511C33.294 40.5511 33.1815 40.5724 33.0996 40.6151C33.0174 40.6577 32.9765 40.7134 32.9765 40.7815C32.9765 40.8466 33.0074 40.9027 33.0691 40.9508C33.1308 40.9984 33.2098 41.0402 33.3062 41.075C33.4024 41.1101 33.5276 41.1485 33.6822 41.1903C33.8366 41.2321 33.9501 41.2642 34.0225 41.2867C34.3843 41.4008 34.6629 41.543 34.858 41.713C35.0531 41.883 35.1507 42.0993 35.1507 42.3622Z" fill="white"/>
<path d="M41.1241 43.3854H39.5933L39.8211 43.124L39.649 42.7552H37.9221L37.7447 43.124L37.9726 43.3854H36.6431L38.2533 40.1465L38.1234 39.8852H39.3444L41.1241 43.3854ZM39.3816 42.1245L38.7803 40.8715L38.1846 42.1245H39.3816Z" fill="white"/>
<path d="M45.966 43.3853H42.6689L42.8967 43.124V40.1465L42.6689 39.8852H44.1812L43.9534 40.1465V42.6551H45.6933L45.9661 42.4346L45.966 43.3853Z" fill="white"/>
<path d="M55.0328 43.3853H53.5522L53.7799 43.124V41.443L52.8213 43.3853H52.3155L51.2324 41.4123V43.124L51.4601 43.3853H50.2075L50.4353 43.124V40.1465L50.2075 39.8852H51.4814L52.6571 42.0274L53.7323 39.8852H55.0328L54.805 40.1465V43.124L55.0328 43.3853Z" fill="white"/>
<path d="M60.9029 39.8852L60.6753 40.1465V42.1141C60.6753 42.3584 60.6391 42.5651 60.5667 42.7345C60.4943 42.9033 60.3856 43.0407 60.241 43.1456C60.0961 43.2509 59.9106 43.3285 59.6848 43.3789C59.4588 43.4292 59.1852 43.4543 58.8638 43.4543C58.5442 43.4543 58.2719 43.4292 58.0468 43.3789C57.8218 43.3285 57.6359 43.2509 57.4893 43.1456C57.3427 43.0407 57.2334 42.903 57.161 42.733C57.0887 42.563 57.0525 42.3571 57.0525 42.1141V40.1465L56.8247 39.8852H58.3501L58.1224 40.1465V42.0836C58.1224 42.2919 58.188 42.4473 58.3195 42.5499C58.451 42.6524 58.6325 42.7035 58.8638 42.7035C59.0951 42.7035 59.277 42.653 59.4094 42.5514C59.5418 42.4496 59.608 42.2939 59.608 42.0837V40.1466L59.3803 39.8853L60.9029 39.8852Z" fill="white"/>
<path d="M65.93 42.3622C65.93 42.5314 65.8994 42.6834 65.8385 42.8184C65.7778 42.9533 65.6832 43.0704 65.5552 43.1696C65.4272 43.2684 65.2666 43.3449 65.0731 43.3986C64.8799 43.4527 64.6508 43.4795 64.386 43.4795C64.2253 43.4795 64.0527 43.4641 63.8682 43.4335C63.6837 43.4025 63.5054 43.3635 63.3332 43.3154C63.161 43.2678 63.0326 43.2276 62.9479 43.1952L62.6592 43.5V42.2036C62.9346 42.3779 63.2272 42.507 63.5371 42.5918C63.8469 42.6764 64.1131 42.7187 64.3355 42.7187C64.4504 42.7187 64.554 42.6994 64.6469 42.6611C64.7395 42.6226 64.7858 42.5487 64.7858 42.4391C64.7858 42.3521 64.7451 42.2855 64.664 42.2394C64.5828 42.1933 64.4333 42.1419 64.2151 42.0845C63.9973 42.0273 63.8527 41.9867 63.7821 41.9626C63.3974 41.8331 63.1103 41.6812 62.9216 41.508C62.7326 41.3346 62.6382 41.0958 62.6382 40.7916C62.6382 40.6191 62.6908 40.4574 62.7958 40.3062C62.9009 40.155 63.0766 40.0312 63.3227 39.9345C63.5691 39.8382 63.8837 39.7898 64.2669 39.7898C64.3552 39.7898 64.4497 39.7962 64.5503 39.809C64.6509 39.8218 64.7622 39.8411 64.8839 39.8667C65.0058 39.8923 65.1134 39.9192 65.207 39.9475C65.3006 39.976 65.3845 40.005 65.4587 40.036L65.7473 39.7697V40.9406C65.5761 40.8619 65.3964 40.7933 65.2084 40.7343C65.0204 40.6751 64.8398 40.6301 64.6669 40.5984C64.494 40.5667 64.3437 40.5511 64.2167 40.5511C64.0737 40.5511 63.9611 40.5724 63.8789 40.6151C63.797 40.6577 63.7558 40.7134 63.7558 40.7815C63.7558 40.8466 63.7867 40.9027 63.8486 40.9508C63.9104 40.9984 63.9894 41.0402 64.0855 41.075C64.1816 41.1101 64.307 41.1485 64.4616 41.1903C64.6163 41.2321 64.7296 41.2642 64.8019 41.2867C65.1638 41.4008 65.4423 41.543 65.6374 41.713C65.8324 41.8826 65.93 42.0993 65.93 42.3622Z" fill="white"/>
<path d="M69.3894 43.3853H67.8555L68.0834 43.124V40.1465L67.8555 39.8852H69.3894L69.1614 40.1465V43.124L69.3894 43.3853Z" fill="white"/>
<path d="M74.6937 43.1327C74.6266 43.1701 74.5412 43.2077 74.437 43.2454C74.3328 43.2827 74.218 43.3165 74.0928 43.3465C73.9673 43.3763 73.8319 43.4015 73.6862 43.4222C73.5404 43.4424 73.4024 43.4528 73.2718 43.4528C72.9894 43.4528 72.723 43.4179 72.4733 43.348C72.2234 43.2779 72.0009 43.1687 71.8059 43.02C71.6109 42.8713 71.4578 42.68 71.3465 42.4459C71.2351 42.2119 71.1797 41.9402 71.1797 41.6311C71.1797 41.375 71.2263 41.1357 71.32 40.9137C71.4136 40.6918 71.5521 40.4983 71.7358 40.3333C71.9194 40.1685 72.1441 40.0409 72.4097 39.9501C72.6755 39.8599 72.9777 39.8143 73.3168 39.8143C73.4509 39.8143 73.5878 39.8235 73.7272 39.8413C73.8666 39.8591 73.9953 39.882 74.1126 39.9093C74.23 39.9367 74.3391 39.9684 74.4398 40.0039L74.6886 39.7735V40.9393C74.5544 40.8589 74.419 40.7921 74.2822 40.738C74.1453 40.6844 74.0008 40.6431 73.8491 40.6139C73.6972 40.5847 73.5393 40.5705 73.3751 40.5705C73.0166 40.5705 72.75 40.6697 72.5752 40.869C72.4005 41.0678 72.3132 41.3221 72.3132 41.6311C72.3132 41.8413 72.3581 42.027 72.4481 42.1884C72.5381 42.3499 72.667 42.4752 72.8348 42.5637C73.0026 42.6526 73.1941 42.6971 73.4096 42.6971C73.609 42.6971 73.7914 42.6766 73.9563 42.6356C74.1214 42.5947 74.2583 42.5474 74.3668 42.4932C74.4754 42.4395 74.5844 42.3794 74.6938 42.3125L74.6937 43.1327Z" fill="white"/>
<path d="M81.7572 41.9157L81.5239 41.6465H82.8133V43.0481C82.7376 43.0943 82.6378 43.1417 82.5145 43.1905C82.3905 43.2392 82.2517 43.2836 82.0988 43.3236C81.9451 43.3637 81.7899 43.3954 81.6324 43.4185C81.4756 43.4417 81.3219 43.4529 81.1714 43.4529C80.7923 43.4529 80.439 43.389 80.1121 43.2609C79.7853 43.1328 79.524 42.9318 79.3282 42.6587C79.1325 42.3855 79.0342 42.043 79.0342 41.6311C79.0342 41.2197 79.1379 40.8771 79.3438 40.6035C79.5505 40.3304 79.8181 40.1305 80.1457 40.0039C80.4725 39.8777 80.8149 39.8143 81.1714 39.8143C81.4257 39.8143 81.6363 39.8335 81.8016 39.872C81.9678 39.9107 82.155 39.9648 82.3632 40.0348L82.6518 39.7735V40.9753C82.4209 40.8486 82.1901 40.7497 81.9607 40.678C81.7314 40.6061 81.4857 40.5705 81.2244 40.5705C81.0583 40.5705 80.9101 40.5955 80.7798 40.646C80.6488 40.6965 80.538 40.7687 80.4475 40.8627C80.3563 40.9566 80.2869 41.0679 80.2393 41.197C80.1917 41.3262 80.1675 41.4709 80.1675 41.6314C80.1675 41.9543 80.2619 42.2125 80.4499 42.4064C80.6379 42.6005 80.896 42.6972 81.2244 42.6972C81.3586 42.6972 81.5364 42.6776 81.7572 42.6382V41.9157Z" fill="white"/>
<path d="M88.3939 43.3853H86.784L87.0117 43.124L86.3175 42.1323H85.862V43.124L86.0898 43.3853H84.5781L84.8059 43.124V40.1465L84.5781 39.8852H86.8339C87.3214 39.8852 87.6763 39.9827 87.8986 40.1772C88.1209 40.3721 88.2324 40.6281 88.2324 40.9457C88.2324 41.19 88.1591 41.4029 88.0125 41.5839C87.8658 41.765 87.6662 41.9051 87.4142 42.0043L88.3939 43.3853ZM87.1467 41.0176C87.1467 40.9254 87.1248 40.8493 87.0819 40.7896C87.0383 40.7299 86.9813 40.6858 86.9111 40.6575C86.8401 40.6294 86.7637 40.6153 86.6802 40.6153H85.862V41.4764H86.5507C86.7223 41.4764 86.8643 41.4319 86.9774 41.343C87.0897 41.2541 87.1467 41.1455 87.1467 41.0176Z" fill="white"/>
<path d="M94.2591 41.6327C94.2591 42.053 94.1608 42.4014 93.9627 42.678C93.7654 42.9548 93.5088 43.1568 93.1936 43.2841C92.8785 43.4115 92.5392 43.475 92.1757 43.475C91.813 43.475 91.4737 43.4111 91.1571 43.2831C90.8404 43.1545 90.5822 42.952 90.3825 42.6745C90.1828 42.3967 90.083 42.0495 90.083 41.6327C90.083 41.3134 90.1423 41.036 90.2593 40.8002C90.3771 40.5643 90.5354 40.3725 90.7359 40.2246C90.9363 40.077 91.1594 39.9685 91.4043 39.8992C91.65 39.8302 91.9066 39.7957 92.1757 39.7957C92.4472 39.7957 92.7061 39.8306 92.9511 39.9007C93.1968 39.9706 93.4175 40.0787 93.6149 40.2246C93.8114 40.3709 93.9682 40.5622 94.0852 40.7987C94.2014 41.0352 94.2591 41.3133 94.2591 41.6327ZM93.1258 41.6327C93.1258 41.2927 93.0493 41.0276 92.8965 40.8369C92.7444 40.6466 92.5033 40.5513 92.175 40.5513C91.9581 40.5513 91.7779 40.5954 91.6344 40.6833C91.4917 40.7712 91.3872 40.896 91.3209 41.0575C91.2546 41.219 91.2218 41.4107 91.2218 41.6327C91.2218 41.7933 91.2397 41.9411 91.2764 42.0758C91.3123 42.211 91.37 42.3262 91.448 42.4219C91.5268 42.5175 91.6266 42.5908 91.7475 42.6425C91.8684 42.6936 92.0112 42.7192 92.1757 42.7192C92.3411 42.7192 92.4846 42.6936 92.6055 42.6425C92.7264 42.5909 92.8255 42.5175 92.9019 42.4219C92.9791 42.3262 93.0353 42.2131 93.072 42.0822C93.1078 41.9518 93.1258 41.802 93.1258 41.6327Z" fill="white"/>
<path d="M99.9209 39.8852L99.6931 40.1465V42.1141C99.6931 42.3584 99.6565 42.5651 99.5847 42.7345C99.5122 42.9033 99.403 43.0407 99.2587 43.1456C99.1136 43.2509 98.928 43.3285 98.7025 43.3789C98.4763 43.4292 98.2026 43.4543 97.8812 43.4543C97.5622 43.4543 97.29 43.4292 97.0645 43.3789C96.8391 43.3285 96.6535 43.2509 96.5068 43.1456C96.3602 43.0407 96.251 42.903 96.1785 42.733C96.1059 42.563 96.07 42.3571 96.07 42.1141V40.1465L95.8423 39.8852H97.368L97.1402 40.1465V42.0836C97.1402 42.2919 97.2057 42.4473 97.3375 42.5499C97.4686 42.6524 97.6503 42.7035 97.8812 42.7035C98.1129 42.7035 98.2946 42.653 98.4272 42.5514C98.5598 42.4496 98.6253 42.2939 98.6253 42.0837V40.1466L98.3983 39.8853L99.9209 39.8852Z" fill="white"/>
<path d="M105.364 41.0457C105.364 41.5479 105.204 41.894 104.881 42.0836C104.559 42.2731 104.14 42.3681 103.625 42.3681H102.994V43.124L103.222 43.3853H101.71L101.938 43.124V40.1465L101.71 39.8852H103.657C103.941 39.8852 104.21 39.9176 104.464 39.9827C104.718 40.0474 104.932 40.1661 105.105 40.3387C105.278 40.5111 105.364 40.7469 105.364 41.0457ZM104.263 41.1072C104.263 40.9245 104.206 40.7967 104.092 40.7242C103.978 40.6517 103.814 40.6153 103.601 40.6153H102.995V41.6735H103.506C103.765 41.6735 103.956 41.6325 104.079 41.5508C104.201 41.4686 104.263 41.321 104.263 41.1072Z" fill="white"/>
</g>
</g>
<defs>
<clipPath id="clip0_2292_17767">
<rect width="105.066" height="48" fill="white" transform="translate(0.313477)"/>
</clipPath>
<clipPath id="clip1_2292_17767">
<rect width="105.066" height="39" fill="white" transform="translate(0.313477 4.5)"/>
</clipPath>
</defs>
</svg>
