<svg width="191" height="80" viewBox="0 0 191 80" fill="none" xmlns="http://www.w3.org/2000/svg">
<path d="M148.167 21.0911L155.071 58.9078H144.116L141.374 37.1514L135.382 58.9078H125.551L119.559 37.1514L116.817 58.9078H105.864L112.767 21.0911H124.356L130.468 43.3113L136.58 21.0911H148.169H148.167ZM96.0059 21.0911L87.0876 46.611L78.1694 21.0911H66.823L81.106 58.9078H93.0703L107.353 21.0911H96.007H96.0059ZM170.964 49.2272V21.0911H160.483V58.9078H186.478L190.134 49.2261H170.965L170.964 49.2272ZM55.9984 62.714V68H50.7124L27.999 45.2865L5.2855 68H-0.000488281V62.714L22.713 40.0005L-0.000488281 17.286V12H5.2855L27.999 34.7135L50.7124 12H55.9984V17.286L33.285 39.9995L55.9984 62.7129V62.714ZM33.5518 12L27.999 17.5529L22.4461 12H12.8946L27.9979 27.1033L43.1023 12H33.5507H33.5518ZM43.1034 67.9989L28.0001 52.8956L12.8968 67.9989H22.4483L28.0011 62.446L33.554 67.9989H43.1055H43.1034ZM55.9995 45.5523L50.4466 39.9995L55.9995 34.4466V24.8951L40.8962 39.9984L55.9995 55.1017V45.5501V45.5523ZM-0.000488281 55.1028L15.1028 39.9995L-0.000488281 24.8962V34.4477L5.55237 40.0005L-0.000488281 45.5534V55.1049V55.1028Z" fill="black"/>
</svg>
