<?xml version="1.0" encoding="UTF-8" standalone="no"?>
<svg
   version="1.1"
   width="723"
   height="499"
   id="svg262"
   xmlns="http://www.w3.org/2000/svg"
   xmlns:svg="http://www.w3.org/2000/svg">
  <defs
     id="defs266" />
  <path
     d="M 0.36619374,0 C 238.95619,0 477.54619,0 723.36619,0 c 0,164.67 0,329.34 0,499 -238.59,0 -477.18,0 -722.99999626,0 0,-164.67 0,-329.34 0,-499 z"
     fill="#fdfefe"
     id="path2" />
  <path
     d="M0 0 C1.81653692 -0.01652133 3.63300986 -0.04376084 5.44921875 -0.08203125 C8.08098756 -0.13714432 10.71123562 -0.15872751 13.34350586 -0.17333984 C14.14588181 -0.19600922 14.94825775 -0.21867859 15.77494812 -0.24203491 C21.81955816 -0.21967687 25.93065632 1.41830601 30.55053711 5.35009766 C33.12217455 8.66405669 34.05411517 11.67564318 34.83178711 15.76416016 C35.03416992 16.77220703 35.23655273 17.78025391 35.44506836 18.81884766 C35.85015978 20.93055003 36.25379552 23.04253214 36.65600586 25.15478516 C36.85838867 26.16025391 37.06077148 27.16572266 37.26928711 28.20166016 C37.44395508 29.1177002 37.61862305 30.03374023 37.79858398 30.97753906 C38.62829889 33.59545123 39.39773618 34.68029694 41.55053711 36.35009766 C44.41013771 37.52120215 44.41013771 37.52120215 47.55053711 37.35009766 C49.71226944 35.57903566 49.71226944 35.57903566 51.04663086 33.99462891 C66.47570546 17.12283564 90.9022312 9.1581205 112.55053711 4.35009766 C113.75516602 4.04652344 113.75516602 4.04652344 114.98413086 3.73681641 C117.16491659 3.19677306 119.34056928 2.75519814 121.55053711 2.35009766 C122.5547168 2.16447266 123.55889648 1.97884766 124.59350586 1.78759766 C146.21328246 -1.54921674 174.59944574 -3.14929174 195.55053711 4.35009766 C197.22166109 5.67224753 197.22166109 5.67224753 198.55053711 7.35009766 C198.85007715 10.44846103 198.96357533 13.34667108 198.94494629 16.4468689 C198.95103739 17.38920494 198.9571285 18.33154098 198.96340418 19.30243266 C198.98011137 22.47387816 198.97524734 25.64492556 198.97045898 28.81640625 C198.97779486 31.08457357 198.98637967 33.35273714 198.99612427 35.62089539 C199.01840046 41.79237711 199.02126786 47.96372557 199.01937675 54.13524199 C199.01925733 59.28204817 199.0278102 64.42882583 199.03615427 69.57562411 C199.05651267 82.41042005 199.05753037 95.2451178 199.05034715 108.07992049 C199.04477224 119.22797133 199.06559328 130.37579232 199.09870762 141.52378945 C199.13243697 152.9675759 199.14713909 164.41120827 199.14299059 175.85505354 C199.14091937 182.28108739 199.14645994 188.70689241 199.17088318 195.13288498 C199.19308974 201.17565111 199.19132288 207.21793794 199.17095566 213.26070595 C199.16753476 215.48071601 199.17268085 217.70075796 199.18693924 219.92072487 C199.20504059 222.94750049 199.19244985 225.97263438 199.17199707 228.99935913 C199.18451492 229.88155762 199.19703277 230.76375611 199.20992994 231.67268789 C199.14586126 236.08366463 198.96929815 237.81521369 196.16135406 241.40180397 C193.31328128 243.52714723 192.22133357 243.93893492 188.73803711 243.72509766 C187.55274414 243.67482422 187.55274414 243.67482422 186.34350586 243.62353516 C184.18149441 243.4118697 182.02524548 243.14089282 179.87304688 242.84570312 C175.78202771 242.33279611 171.71797009 242.17350474 167.59741211 242.14697266 C166.8635881 242.13995834 166.1297641 242.13294403 165.373703 242.12571716 C163.01591791 242.10830212 160.65838418 242.10186397 158.30053711 242.10009766 C157.49407745 242.09942291 156.6876178 242.09874817 155.85671997 242.09805298 C143.5208851 242.11445192 131.62495615 242.6186301 119.55053711 245.35009766 C118.36451904 245.60750732 118.36451904 245.60750732 117.15454102 245.87011719 C105.66000746 248.4236973 95.1283363 252.20570351 84.55053711 257.35009766 C83.07520508 258.04039062 83.07520508 258.04039062 81.57006836 258.74462891 C71.98960974 263.54177052 62.98942517 270.77008537 56.55053711 279.35009766 C57.03184082 279.07858887 57.51314453 278.80708008 58.0090332 278.52734375 C69.55566482 272.07553705 80.841874 266.99990532 93.55053711 263.35009766 C94.30802246 263.12483398 95.06550781 262.89957031 95.84594727 262.66748047 C115.76942164 256.78319333 135.51403907 254.78592206 156.23803711 254.91259766 C157.23646637 254.91430969 158.23489563 254.91602173 159.26358032 254.91778564 C175.05375108 254.96414801 190.0597564 256.12726249 205.55053711 259.35009766 C209.18053711 260.01009766 212.81053711 260.67009766 216.55053711 261.35009766 C216.55053711 189.41009766 216.55053711 117.47009766 216.55053711 43.35009766 C214.24053711 43.35009766 211.93053711 43.35009766 209.55053711 43.35009766 C208.56053711 43.02009766 207.57053711 42.69009766 206.55053711 42.35009766 C206.55053711 38.06009766 206.55053711 33.77009766 206.55053711 29.35009766 C213.56999205 28.99912491 221.14816927 29.17388397 227.55053711 32.35009766 C229.90438819 37.47458343 229.83724883 42.37079805 229.81796265 47.89028931 C229.82249376 48.84406129 229.82702487 49.79783328 229.83169329 50.78050745 C229.84434147 53.97253615 229.84271666 57.16439434 229.84106445 60.35644531 C229.84704923 62.64637979 229.85385466 64.93631226 229.86141968 67.22624207 C229.87908696 73.44291002 229.88377523 79.65952292 229.88505125 85.87621355 C229.88695012 91.06302357 229.89430709 96.24982076 229.90139544 101.43662584 C229.91674812 112.96969557 229.9227331 124.50273386 229.92138474 136.03581233 C229.92130482 136.72733899 229.92122491 137.41886565 229.92114258 138.13134766 C229.92106082 138.82371865 229.92097906 139.51608964 229.92089482 140.22944157 C229.92008109 151.46200509 229.93924329 162.6944348 229.96741931 173.92695959 C229.99612684 185.4623502 230.00959437 196.99765818 230.00823176 208.53308713 C230.00772096 215.00875872 230.01346972 221.48427866 230.03458786 227.95991898 C230.05389246 234.04533873 230.05414809 240.13046089 230.0395546 246.21589088 C230.03745607 248.45244975 230.04222904 250.68902687 230.05427551 252.92555428 C230.06962552 255.972015 230.06048779 259.01743626 230.04501343 262.06387329 C230.05530055 262.95472016 230.06558768 263.84556703 230.07618654 264.76340926 C230.00875894 270.74474122 230.00875894 270.74474122 227.64463234 273.86798668 C223.9061217 276.5139445 221.03673023 276.79583813 216.55053711 276.35009766 C214.59875671 275.91875244 212.65391976 275.45548757 210.71459961 274.97119141 C168.0529607 264.93140835 124.99408704 267.90298837 83.55053711 281.35009766 C83.55053711 281.68009766 83.55053711 282.01009766 83.55053711 282.35009766 C85.43071533 282.03177979 85.43071533 282.03177979 87.34887695 281.70703125 C100.69470028 279.5589681 113.67292564 278.86514039 127.17553711 278.97509766 C128.17567841 278.97908569 129.1758197 278.98307373 130.20626831 278.98718262 C152.58614354 279.09147718 174.19054847 281.23150315 196.1081543 285.84277344 C198.53539976 286.34695337 200.96704982 286.81881826 203.40209961 287.28369141 C213.16880791 289.18652932 222.54678341 291.74657838 231.98803711 294.88525391 C237.12646625 296.53500641 242.34392769 297.93011327 247.55053711 299.35009766 C247.55053711 224.77009766 247.55053711 150.19009766 247.55053711 73.35009766 C244.25053711 73.02009766 240.95053711 72.69009766 237.55053711 72.35009766 C237.55053711 67.73009766 237.55053711 63.11009766 237.55053711 58.35009766 C240.28184004 58.6060632 243.00955175 58.87926353 245.73803711 59.16259766 C246.50696289 59.23285156 247.27588867 59.30310547 248.06811523 59.37548828 C252.57210701 59.8587492 255.85814365 60.50372833 259.55053711 63.35009766 C260.68345485 65.61593313 260.67860572 66.8438501 260.68475819 69.35883713 C260.68921603 70.20210076 260.69367387 71.04536439 260.6982668 71.91418147 C260.69799026 73.3117181 260.69799026 73.3117181 260.69770813 74.73748779 C260.70138482 75.72318292 260.70506151 76.70887805 260.70884961 77.72444272 C260.71991914 81.04855943 260.72373581 84.37264493 260.72753906 87.69677734 C260.73380122 90.0715444 260.7404478 92.44631046 260.74745178 94.82107544 C260.76670349 101.96307933 260.77728362 109.10508384 260.78617957 116.24710643 C260.79056141 119.60949412 260.79592851 122.97188023 260.80116844 126.33426666 C260.81818189 137.51021879 260.8326762 148.68616993 260.83991718 159.86213303 C260.84182711 162.76306917 260.84374744 165.6640053 260.84570312 168.56494141 C260.84618687 169.28596532 260.84667061 170.00698922 260.847169 170.74986234 C260.85546981 182.43074414 260.88080702 194.11152355 260.9132838 205.79236063 C260.94634734 217.78188656 260.96436532 229.77136044 260.96756142 241.76093221 C260.96972724 248.49383087 260.97848612 255.22658025 261.0040226 261.95943451 C261.02724551 268.29266517 261.03155971 274.62562686 261.02126122 280.95888901 C261.02076435 283.28491229 261.027129 285.61094855 261.04081726 287.93693161 C261.0584467 291.10987034 261.05147354 294.28183442 261.0382843 297.45477295 C261.05473817 298.83892525 261.05473817 298.83892525 261.07152444 300.25104022 C261.014708 305.90358619 260.26395874 309.01699155 256.55053711 313.35009766 C251.892398 315.67916721 246.61870831 314.54440945 241.87866211 312.99462891 C240.18259699 312.39333769 238.49000248 311.78219006 236.80053711 311.16259766 C226.50954743 307.56434316 216.1654829 304.80335839 205.55053711 302.35009766 C204.78112793 302.16850098 204.01171875 301.9869043 203.21899414 301.79980469 C192.073351 299.17324558 180.89425893 296.93122845 169.55053711 295.35009766 C168.8114209 295.2442334 168.07230469 295.13836914 167.31079102 295.02929688 C124.37617615 289.20687221 78.72216842 291.88999327 39.55053711 311.35009766 C32.42178035 314.56770238 25.33494057 315.41480316 17.55053711 314.35009766 C12.51080112 312.29914423 8.76941437 308.31104667 6.55053711 303.35009766 C5.98278786 299.72359649 6.04459085 296.14352914 6.09643555 292.47949219 C6.09585144 291.3959697 6.09526733 290.3124472 6.09466553 289.1960907 C6.09744599 285.62470148 6.12853773 282.05415309 6.15991211 278.48291016 C6.16737459 276.00284277 6.17306749 273.52276948 6.17706299 271.04269409 C6.19231852 264.5225388 6.23160037 258.00274123 6.27587891 251.48272705 C6.31900049 244.82660672 6.33507435 238.17038217 6.35522461 231.51416016 C6.39809409 218.45932025 6.46557362 205.404728 6.55053711 192.35009766 C5.45870117 192.37281738 4.36686523 192.39553711 3.24194336 192.41894531 C-4.45596391 192.27537323 -12.3418935 187.31002171 -17.92211914 182.11181641 C-24.52529991 174.49535981 -27.95557808 166.04303348 -27.69555664 155.96337891 C-26.58910688 144.21393619 -20.55375377 136.5894196 -11.81274414 129.11181641 C-5.88854199 124.69559298 -0.78056715 123.39739826 6.55053711 122.35009766 C6.55053711 86.71009766 6.55053711 51.07009766 6.55053711 14.35009766 C-3.84446289 14.84509766 -3.84446289 14.84509766 -14.44946289 15.35009766 C-14.81297852 17.07357422 -15.17649414 18.79705078 -15.55102539 20.57275391 C-16.05773501 22.85294719 -16.56560907 25.13288192 -17.07446289 27.41259766 C-17.42831055 29.11319336 -17.42831055 29.11319336 -17.78930664 30.84814453 C-19.30214611 37.50075912 -20.65854133 43.27181337 -26.44946289 47.35009766 C-30.441305 49.29548446 -34.53739835 50.68544037 -38.76196289 52.03759766 C-40.94660685 52.76753487 -43.13022185 53.50055964 -45.31274414 54.23681641 C-46.3563208 54.58486328 -47.39989746 54.93291016 -48.47509766 55.29150391 C-51.93420243 56.52261925 -55.23593287 57.97367688 -58.54223633 59.56567383 C-61.94564557 60.96546311 -64.93295491 61.19776813 -68.44946289 60.35009766 C-73.40650625 58.12767542 -77.71166856 54.90926434 -82.05883789 51.68994141 C-82.68193848 51.23216309 -83.30503906 50.77438477 -83.94702148 50.30273438 C-85.18398932 49.38683128 -86.41126956 48.45767551 -87.62768555 47.51464844 C-90.78304176 45.07341689 -90.78304176 45.07341689 -94.58618164 44.32666016 C-97.02498982 45.66621517 -98.85252186 47.25852553 -100.88696289 49.16259766 C-102.18053711 50.36142578 -102.18053711 50.36142578 -103.50024414 51.58447266 C-104.20141357 52.24286133 -104.20141357 52.24286133 -104.91674805 52.91455078 C-106.60002873 54.49111823 -108.29509506 56.05430114 -109.99243164 57.61572266 C-113.15041124 60.52113238 -116.30140081 63.43394611 -119.44946289 66.35009766 C-117.92898332 70.87736829 -115.3962295 74.43257751 -112.57446289 78.22509766 C-102.37477838 91.99618506 -102.37477838 91.99618506 -103.44946289 99.35009766 C-104.79732395 103.09300415 -106.47019302 106.64512042 -108.19946289 110.22509766 C-109.09033872 112.1182088 -109.98096655 114.01143668 -110.87133789 115.90478516 C-111.30696045 116.81695801 -111.74258301 117.72913086 -112.19140625 118.66894531 C-113.71260923 121.91091137 -115.13061333 125.19176651 -116.52099609 128.49169922 C-118.73145544 132.91610536 -121.59283955 134.72208178 -126.09399414 136.24462891 C-135.39210297 138.61886299 -144.92425026 139.40484755 -154.44946289 140.35009766 C-154.11946289 151.57009766 -153.78946289 162.79009766 -153.44946289 174.35009766 C-145.25558903 175.82904185 -145.25558903 175.82904185 -137.05688477 177.28076172 C-129.44103465 178.70014386 -122.74398603 180.07221352 -117.12915039 185.65869141 C-115.16141713 188.81164075 -113.87111182 191.92922723 -112.57446289 195.41259766 C-110.68233867 200.41242234 -108.60087235 205.12499695 -106.07446289 209.85009766 C-103.8305678 214.26702799 -102.48249322 217.32185536 -103.44946289 222.35009766 C-106.24654397 228.52753738 -109.72897876 233.86930976 -113.69946289 239.35009766 C-114.25375977 240.12482422 -114.80805664 240.89955078 -115.37915039 241.69775391 C-116.73091071 243.58555711 -118.08769859 245.46950499 -119.44946289 247.35009766 C-118.06515152 250.50281928 -116.48473483 252.51300357 -113.96508789 254.84619141 C-113.27672852 255.4875 -112.58836914 256.12880859 -111.87915039 256.78955078 C-110.80020508 257.77858398 -110.80020508 257.77858398 -109.69946289 258.78759766 C-108.99563477 259.44308594 -108.29180664 260.09857422 -107.56665039 260.77392578 C-105.54236185 262.6495909 -103.49767631 264.50064517 -101.44946289 266.35009766 C-100.88420898 266.88521973 -100.31895508 267.4203418 -99.73657227 267.97167969 C-98.05306354 269.55881971 -98.05306354 269.55881971 -95.44946289 271.35009766 C-92.49477482 270.98292744 -90.44870255 269.87812627 -88.02368164 268.20556641 C-87.39139648 267.77566406 -86.75911133 267.34576172 -86.10766602 266.90283203 C-85.45733398 266.45230469 -84.80700195 266.00177734 -84.13696289 265.53759766 C-82.20822598 264.21219923 -80.27636962 262.89484873 -78.32592773 261.6015625 C-77.13144426 260.80492936 -75.95228706 259.98444516 -74.7956543 259.13378906 C-69.61960905 255.63529437 -64.54086938 255.49277342 -58.44946289 256.35009766 C-54.56320001 257.47018835 -50.94451538 259.00042386 -47.26196289 260.66259766 C-45.39385325 261.4720688 -43.52536981 262.2806779 -41.65649414 263.08837891 C-40.77388916 263.47695068 -39.89128418 263.86552246 -38.98193359 264.26586914 C-36.66757338 265.25671785 -34.34385766 266.16314522 -31.98071289 267.02978516 C-27.28159369 268.78675672 -23.58869129 270.45138366 -20.94946289 274.85009766 C-19.03431394 279.31877854 -17.89295321 283.81887369 -16.76196289 288.53759766 C-16.53702148 289.43929688 -16.31208008 290.34099609 -16.08032227 291.27001953 C-14.44946289 297.92729655 -14.44946289 297.92729655 -14.44946289 301.35009766 C-10.81946289 301.35009766 -7.18946289 301.35009766 -3.44946289 301.35009766 C-2.50545247 303.53108724 -1.56144206 305.71207682 -0.61743164 307.89306641 C0.61724027 310.49041969 2.0361042 312.907044 3.55053711 315.35009766 C0.17583207 315.46699391 -3.19834719 315.537577 -6.57446289 315.60009766 C-7.52579102 315.63361328 -8.47711914 315.66712891 -9.45727539 315.70166016 C-16.33377649 315.79716712 -19.77106371 314.56306441 -25.02392578 309.97485352 C-26.7032907 308.06079742 -27.15502997 306.64315562 -27.76586914 304.18212891 C-27.97276367 303.37066406 -28.1796582 302.55919922 -28.39282227 301.72314453 C-28.69929688 300.45567383 -28.69929688 300.45567383 -29.01196289 299.16259766 C-29.22014648 298.33695312 -29.42833008 297.51130859 -29.64282227 296.66064453 C-29.84842773 295.84273438 -30.0540332 295.02482422 -30.26586914 294.18212891 C-30.47638916 293.37171143 -30.68690918 292.56129395 -30.90380859 291.72631836 C-31.44946289 289.35009766 -31.44946289 289.35009766 -31.68847656 287.10473633 C-31.91834552 284.68115667 -31.91834552 284.68115667 -33.44946289 281.35009766 C-36.62843445 279.25843546 -40.02528609 278.17799865 -43.63696289 277.03759766 C-45.50577316 276.39660476 -47.37426943 275.75469559 -49.24243164 275.11181641 C-50.13752441 274.81710449 -51.03261719 274.52239258 -51.95483398 274.21875 C-54.14553583 273.45592781 -56.21005239 272.59321336 -58.31274414 271.61962891 C-61.50939378 270.32584169 -63.07038889 270.00336432 -66.44946289 270.35009766 C-68.99155932 271.59338227 -68.99155932 271.59338227 -71.46118164 273.37744141 C-72.38350586 274.00457031 -73.30583008 274.63169922 -74.25610352 275.27783203 C-75.20678711 275.94105469 -76.1574707 276.60427734 -77.13696289 277.28759766 C-79.03627559 278.58900214 -80.93599481 279.88981358 -82.83618164 281.18994141 C-84.09241333 282.06187134 -84.09241333 282.06187134 -85.37402344 282.95141602 C-88.51206819 285.06620938 -90.43473726 285.55421919 -94.19946289 285.66259766 C-95.03993164 285.69998047 -95.88040039 285.73736328 -96.74633789 285.77587891 C-103.50032993 284.71202756 -108.45213006 278.72128722 -113.19946289 274.16259766 C-118.53059958 269.08395301 -123.89690235 264.11980868 -129.53149414 259.37744141 C-132.31570093 256.43446111 -134.05292391 253.27094704 -134.87524414 249.28759766 C-134.45790199 242.14960777 -130.28143956 237.25855331 -126.09008789 231.77978516 C-125.66018555 231.21614258 -125.2302832 230.6525 -124.78735352 230.07177734 C-123.86880887 228.88973778 -122.92860439 227.72431059 -121.97094727 226.57373047 C-119.03750474 222.89638557 -119.03750474 222.89638557 -118.45727539 218.31103516 C-119.94801064 213.86230556 -121.93937494 209.76326832 -123.99633789 205.55322266 C-125.211413 202.87483128 -125.92290243 200.56253835 -126.57446289 197.72509766 C-128.06739076 194.25130638 -128.06739076 194.25130638 -130.73461914 193.30712891 C-133.96086529 192.45171775 -137.15287296 191.87512335 -140.44946289 191.35009766 C-142.54024497 190.98628648 -144.62870584 190.61185514 -146.71630859 190.23022461 C-148.08887324 189.9827338 -149.46373054 189.74753928 -150.84082031 189.52661133 C-156.4542531 188.56602013 -160.85105616 187.07810494 -164.76196289 182.85009766 C-167.86642038 178.25090137 -167.64066688 173.87553535 -167.68774414 168.51806641 C-167.69581589 167.64869949 -167.70388763 166.77933258 -167.71220398 165.88362122 C-167.7260309 164.04360948 -167.73675928 162.20357225 -167.74462891 160.36352539 C-167.76183516 157.55842147 -167.80573209 154.75449849 -167.84985352 151.94970703 C-167.8599816 150.16000214 -167.86849734 148.37028724 -167.87524414 146.58056641 C-167.89275223 145.74599411 -167.91026031 144.91142181 -167.92829895 144.05155945 C-167.9083761 138.66700522 -167.0638478 135.59393403 -163.44946289 131.35009766 C-160.45435643 128.52652561 -157.80716701 127.74886485 -153.80102539 126.96337891 C-152.71305664 126.74746094 -151.62508789 126.53154297 -150.50415039 126.30908203 C-149.37235352 126.09574219 -148.24055664 125.88240234 -147.07446289 125.66259766 C-145.38836914 125.32518555 -145.38836914 125.32518555 -143.66821289 124.98095703 C-138.49860022 123.97575457 -133.73275576 123.22603295 -128.44946289 123.35009766 C-128.31411133 122.79064453 -128.17875977 122.23119141 -128.03930664 121.65478516 C-126.17955526 114.7280465 -123.26871389 108.82337124 -119.87524414 102.54931641 C-118.42468342 99.29449659 -118.09456327 97.82547279 -118.44946289 94.35009766 C-119.57570818 92.11143963 -119.57570818 92.11143963 -121.22290039 90.02978516 C-121.80040039 89.24732422 -122.37790039 88.46486328 -122.97290039 87.65869141 C-123.58391602 86.85560547 -124.19493164 86.05251953 -124.82446289 85.22509766 C-126.01989531 83.61841604 -127.21521259 82.01164875 -128.41040039 80.40478516 C-128.94455566 79.69821777 -129.47871094 78.99165039 -130.02905273 78.26367188 C-132.74895472 74.59942441 -133.76153293 72.58743368 -133.82446289 68.03759766 C-133.85282227 67.11333984 -133.88118164 66.18908203 -133.91040039 65.23681641 C-132.88270901 58.80068139 -128.03587212 54.73001079 -123.38696289 50.60009766 C-122.81840576 50.08640625 -122.24984863 49.57271484 -121.6640625 49.04345703 C-120.49667103 47.98901796 -119.32715752 46.9369234 -118.15551758 45.88720703 C-116.54451669 44.43573857 -114.95093393 42.9679088 -113.36352539 41.49072266 C-112.42250977 40.61931641 -111.48149414 39.74791016 -110.51196289 38.85009766 C-109.67793945 38.07666016 -108.84391602 37.30322266 -107.98461914 36.50634766 C-102.76232916 32.06458484 -99.05131746 29.47666151 -92.14868164 29.77587891 C-86.83256777 30.90680328 -82.77654165 34.20045529 -78.44946289 37.35009766 C-76.3547457 38.8426161 -74.25055467 40.32193018 -72.13696289 41.78759766 C-70.71963867 42.80660156 -70.71963867 42.80660156 -69.27368164 43.84619141 C-65.96660946 45.60721878 -64.14692561 45.80005344 -60.44946289 45.35009766 C-57.94046971 44.47067434 -57.94046971 44.47067434 -55.51196289 43.16259766 C-52.21545491 41.53474846 -49.05045224 40.17797168 -45.50805664 39.22119141 C-38.53793806 37.59930386 -38.53793806 37.59930386 -32.93383789 33.56103516 C-32.07855101 31.13165646 -31.74598827 28.91164825 -31.44946289 26.35009766 C-31.10715644 24.45039697 -30.76349208 22.55081151 -30.39379883 20.65625 C-30.02748569 18.74364571 -29.70810215 16.82223356 -29.39086914 14.90087891 C-27.77749575 8.81558258 -24.57656523 4.89963004 -19.44946289 1.35009766 C-13.38692987 -0.67074668 -6.36325792 0.04237209 0 0 Z "
     fill="#3E4D6B"
     transform="translate(316.449462890625,38.64990234375)"
     id="path4" />
  <path
     d="M0 0 C0 70.62 0 141.24 0 214 C-15.84 214 -31.68 214 -48 214 C-56.36066784 214.9925907 -63.97073604 215.93050531 -72 218 C-72.90057129 218.21962402 -73.80114258 218.43924805 -74.72900391 218.66552734 C-90.97404141 222.68201693 -106.2595876 228.25158542 -120 238 C-120.73089844 238.50789062 -121.46179688 239.01578125 -122.21484375 239.5390625 C-134.31352954 248.42164194 -143.33296241 258.58999045 -150 272 C-150.86431641 273.72283203 -150.86431641 273.72283203 -151.74609375 275.48046875 C-152.77052886 277.53670901 -153.78166629 279.59968265 -154.7734375 281.671875 C-156 284 -156 284 -158 286 C-161 286.25 -161 286.25 -164 286 C-166.47501955 283.52498045 -166.25167359 282.8215847 -166.25828552 279.41383362 C-166.26511353 278.44779205 -166.27194153 277.48175049 -166.27897644 276.48643494 C-166.27514702 274.89128807 -166.27514702 274.89128807 -166.27124023 273.26391602 C-166.27646698 272.14678223 -166.28169373 271.02964844 -166.28707886 269.87866211 C-166.29734096 267.4466906 -166.30310309 265.01469699 -166.30496025 262.58270454 C-166.3086088 258.73804991 -166.32529345 254.89365676 -166.34571838 251.04905701 C-166.39425141 241.49909808 -166.425801 231.94910614 -166.44702148 222.39904785 C-166.46496767 214.33513682 -166.49430291 206.27149263 -166.54106331 198.20768547 C-166.55274489 195.65634051 -166.55864393 193.10496248 -166.55874443 190.55359077 C-166.55893566 186.99068914 -166.57714209 183.42830078 -166.59936523 179.86547852 C-166.59478806 178.8040715 -166.59021088 177.74266449 -166.585495 176.64909363 C-166.59514282 175.68023224 -166.60479065 174.71137085 -166.61473083 173.71315002 C-166.61674216 172.8704635 -166.61875349 172.02777697 -166.62082577 171.15955448 C-167.08941383 168.49075119 -167.85281802 167.61091238 -170 166 C-172.85393513 165.42195003 -172.85393513 165.42195003 -176.0625 165.1875 C-183.52418283 164.17264459 -189.52200901 161.79125115 -194.69140625 156.15625 C-199.41134694 149.80920724 -199.96530147 143.684182 -199 136 C-196.09637769 128.4253331 -190.16654274 124.31127387 -183 121 C-174.9459474 118.33168583 -165.73778755 119.28858227 -158.15234375 122.8046875 C-152.51836941 125.93353713 -148.39279752 129.88190584 -146 136 C-145.43075163 139.63490601 -145.43568374 143.21850472 -145.45410156 146.89233398 C-145.44376389 147.96624893 -145.43342621 149.04016388 -145.42277527 150.1466217 C-145.39338648 153.67993282 -145.39184886 157.2126701 -145.390625 160.74609375 C-145.37564079 163.20232737 -145.35891314 165.65855093 -145.34051514 168.11476135 C-145.29685699 174.5673367 -145.27684569 181.01977613 -145.26177979 187.47247314 C-145.24220338 194.06180859 -145.20023386 200.65099737 -145.16015625 207.24023438 C-145.08487056 220.16010652 -145.03380811 233.07995613 -145 246 C-144.46890625 245.45730469 -143.9378125 244.91460937 -143.390625 244.35546875 C-142.68421875 243.64003906 -141.9778125 242.92460937 -141.25 242.1875 C-140.55390625 241.47980469 -139.8578125 240.77210938 -139.140625 240.04296875 C-137 238 -137 238 -134.76570034 236.48677921 C-132.85508747 235.16507228 -132.85508747 235.16507228 -132.49942875 233.14390469 C-132.49911482 232.094568 -132.49911482 232.094568 -132.49879456 231.02403259 C-132.48404335 229.81526459 -132.48404335 229.81526459 -132.46899414 228.58207703 C-132.47866211 227.70155167 -132.48833008 226.82102631 -132.49829102 225.91381836 C-132.49288803 224.98334686 -132.48748505 224.05287537 -132.48191833 223.09420776 C-132.46938311 220.00909882 -132.48596295 216.924915 -132.50390625 213.83984375 C-132.50375128 211.69332327 -132.50226267 209.54680251 -132.49949646 207.40028381 C-132.49811001 202.89343954 -132.51070463 198.38691251 -132.53344727 193.88012695 C-132.56171293 188.12244211 -132.55913028 182.36528933 -132.54635715 176.60756588 C-132.5393739 172.16953551 -132.54722142 167.73162641 -132.55961418 163.29361153 C-132.56411145 161.17228219 -132.56448065 159.05093975 -132.56054878 156.9296093 C-132.55761373 153.95012032 -132.57425686 150.97134216 -132.59594727 147.99194336 C-132.59144562 147.12558762 -132.58694397 146.25923187 -132.58230591 145.36662292 C-132.70068608 135.49924148 -135.43225259 126.48806871 -142 119 C-149.17040427 112.43703329 -156.60754195 110.3544493 -166 107 C-166 71.69 -166 36.38 -166 0 C-163.75383883 2.24616117 -163.61351348 3.03915793 -163.0703125 6.0703125 C-162.91433594 6.885 -162.75835937 7.6996875 -162.59765625 8.5390625 C-162.28694942 10.23896266 -161.97955842 11.93947283 -161.67578125 13.640625 C-160.61754286 19.12969892 -159.55543871 24.55290353 -156 29 C-154.31974585 29.79102249 -152.61901392 30.53929624 -150.90527344 31.25488281 C-147.39585456 33.30202069 -146.21171259 34.23370289 -145.11587524 38.20010376 C-144.83976377 42.39465609 -144.87397625 46.48343856 -145.0234375 50.6796875 C-145.0421052 52.21806226 -145.05633208 53.75649676 -145.0663147 55.29495239 C-145.10437386 59.3309139 -145.20247459 63.36323613 -145.31335449 67.39776611 C-145.41593266 71.51988484 -145.461382 75.64259598 -145.51171875 79.765625 C-145.61874609 87.84541437 -145.78924626 95.92225369 -146 104 C-145.21520264 104.29511475 -144.43040527 104.59022949 -143.62182617 104.89428711 C-140.79389112 106.0869231 -139.38494861 107.33170701 -137.3125 109.5625 C-134.93074456 112.1465168 -134.93074456 112.1465168 -132 114 C-132.01776489 113.0155188 -132.03552979 112.0310376 -132.05383301 111.01672363 C-132.21631739 101.71888022 -132.33607699 92.42132643 -132.41449738 83.12238312 C-132.45617138 78.34205251 -132.51265362 73.5628719 -132.60351562 68.78320312 C-132.69072505 64.16654745 -132.73833268 59.55099456 -132.75901794 54.93357849 C-132.77374973 53.17604721 -132.80251958 51.41857334 -132.84584045 49.66151428 C-133.17097609 35.9223004 -133.17097609 35.9223004 -130.28511047 31.18479919 C-128.29149205 29.15376091 -126.36414503 27.57260174 -124 26 C-122.86718355 25.11755946 -121.7354104 24.23377492 -120.60546875 23.34765625 C-119.47545605 22.57219286 -118.33575623 21.81068433 -117.1875 21.0625 C-116.23979736 20.44145386 -116.23979736 20.44145386 -115.27294922 19.80786133 C-80.425342 -2.36061045 -40.14214565 -4.72260537 0 0 Z "
     fill="#FDFDFE"
     transform="translate(502,54)"
     id="path6" />
  <path
     d="M0 0 C7.01945494 -0.35097275 14.59763216 -0.17621369 21 3 C23.35385108 8.12448577 23.28671172 13.0207004 23.26742554 18.54019165 C23.27195665 19.49396364 23.27648776 20.44773562 23.28115618 21.43040979 C23.29380437 24.6224385 23.29217955 27.81429668 23.29052734 31.00634766 C23.29651212 33.29628214 23.30331755 35.5862146 23.31088257 37.87614441 C23.32854985 44.09281236 23.33323812 50.30942526 23.33451414 56.52611589 C23.33641301 61.71292592 23.34376998 66.8997231 23.35085833 72.08652818 C23.36621102 83.61959791 23.37219599 95.15263621 23.37084763 106.68571468 C23.37076772 107.37724133 23.3706878 108.06876799 23.37060547 108.78125 C23.37052371 109.47362099 23.37044195 110.16599198 23.37035771 110.87934391 C23.36954398 122.11190744 23.38870618 133.34433714 23.4168822 144.57686193 C23.44558973 156.11225255 23.45905726 167.64756052 23.45769465 179.18298948 C23.45718385 185.65866106 23.46293261 192.13418101 23.48405075 198.60982132 C23.50335535 204.69524107 23.50361098 210.78036324 23.48901749 216.86579323 C23.48691896 219.10235209 23.49169193 221.33892922 23.5037384 223.57545662 C23.51908841 226.62191734 23.50995068 229.6673386 23.49447632 232.71377563 C23.50476344 233.6046225 23.51505057 234.49546937 23.52564943 235.4133116 C23.45822183 241.39464356 23.45822183 241.39464356 21.09409523 244.51788902 C17.35558459 247.16384685 14.48619312 247.44574047 10 247 C8.0482196 246.56865479 6.10338265 246.10538992 4.1640625 245.62109375 C-38.49757641 235.58131069 -81.55645007 238.55289071 -123 252 C-123 252.33 -123 252.66 -123 253 C-121.74654785 252.78778809 -120.4930957 252.57557617 -119.20166016 252.35693359 C-105.85583683 250.20887044 -92.87761147 249.51504273 -79.375 249.625 C-78.3748587 249.62898804 -77.37471741 249.63297607 -76.3442688 249.63708496 C-53.96439357 249.74137953 -32.35998864 251.88140549 -10.44238281 256.49267578 C-8.01513735 256.99685572 -5.58348729 257.46872061 -3.1484375 257.93359375 C6.6182708 259.83643167 15.9962463 262.39648073 25.4375 265.53515625 C30.57592914 267.18490876 35.79339058 268.58001561 41 270 C41 195.42 41 120.84 41 44 C37.7 43.67 34.4 43.34 31 43 C31 38.38 31 33.76 31 29 C33.73130293 29.25596554 36.45901464 29.52916587 39.1875 29.8125 C39.95642578 29.88275391 40.72535156 29.95300781 41.51757812 30.02539062 C46.0215699 30.50865155 49.30760654 31.15363068 53 34 C54.13291774 36.26583548 54.12806861 37.49375244 54.13422108 40.00873947 C54.13867892 40.8520031 54.14313676 41.69526674 54.14772969 42.56408381 C54.14754533 43.4957749 54.14736097 44.42746599 54.14717102 45.38739014 C54.15084771 46.37308526 54.1545244 47.35878039 54.1583125 48.37434506 C54.16938203 51.69846178 54.1731987 55.02254727 54.17700195 58.34667969 C54.18326411 60.72144674 54.18991069 63.0962128 54.19691467 65.47097778 C54.21616638 72.61298168 54.22674651 79.75498618 54.23564246 86.89700878 C54.2400243 90.25939646 54.2453914 93.62178257 54.25063133 96.98416901 C54.26764478 108.16012114 54.28213909 119.33607228 54.28938007 130.51203537 C54.29129001 133.41297151 54.29321033 136.31390764 54.29516602 139.21484375 C54.29564976 139.93586766 54.2961335 140.65689157 54.2966319 141.39976469 C54.3049327 153.08064649 54.33026991 164.76142589 54.36274669 176.44226298 C54.39581023 188.43178891 54.41382821 200.42126279 54.41702431 212.41083455 C54.41919013 219.14373322 54.42794901 225.87648259 54.45348549 232.60933685 C54.4767084 238.94256752 54.4810226 245.2755292 54.47072411 251.60879135 C54.47022724 253.93481463 54.47659189 256.2608509 54.49028015 258.58683395 C54.50790959 261.75977268 54.50093643 264.93173676 54.48774719 268.10467529 C54.49871644 269.02744349 54.50968568 269.95021169 54.52098733 270.90094256 C54.46417089 276.55348853 53.71342163 279.6668939 50 284 C45.34186089 286.32906955 40.0681712 285.19431179 35.328125 283.64453125 C33.63205988 283.04324004 31.93946537 282.43209241 30.25 281.8125 C19.95901032 278.2142455 9.61494579 275.45326073 -1 273 C-1.76940918 272.81840332 -2.53881836 272.63680664 -3.33154297 272.44970703 C-14.47718611 269.82314792 -25.65627818 267.58113079 -37 266 C-37.73911621 265.89413574 -38.47823242 265.78827148 -39.23974609 265.67919922 C-80.27317264 260.11459742 -126.70275136 261.5404419 -164.171875 280.6171875 C-166.50561297 281.75826932 -168.46585885 282.52023541 -171 283 C-170.6596875 282.5359375 -170.319375 282.071875 -169.96875 281.59375 C-166.46805027 276.60339081 -163.65985671 271.46667034 -161 266 C-154.22217941 252.18904646 -154.22217941 252.18904646 -151 249 C-149.33932727 248.63798484 -147.67125804 248.30949223 -146 248 C-143.72948868 246.81526246 -141.52610057 245.59373201 -139.3125 244.3125 C-130.89277348 239.65240074 -122.20939304 236.69900571 -113 234 C-112.23671387 233.77183594 -111.47342773 233.54367187 -110.68701172 233.30859375 C-90.77038749 227.42976729 -71.02800068 225.43587634 -50.3125 225.5625 C-49.31407074 225.56421204 -48.31564148 225.56592407 -47.28695679 225.56768799 C-31.49678603 225.61405036 -16.49078071 226.77716483 -1 230 C2.63 230.66 6.26 231.32 10 232 C10 160.06 10 88.12 10 14 C7.69 14 5.38 14 3 14 C2.01 13.67 1.02 13.34 0 13 C0 8.71 0 4.42 0 0 Z "
     fill="#86A68D"
     transform="translate(523,68)"
     id="path8" />
  <path
     d="M0 0 C0 4.29 0 8.58 0 13 C-1.77890625 13.22042969 -1.77890625 13.22042969 -3.59375 13.4453125 C-24.93509808 16.30871724 -42.47815427 23.50567528 -58 39 C-58.62390625 39.61230469 -59.2478125 40.22460938 -59.890625 40.85546875 C-73.75538214 55.50089916 -78.73253056 73.75272699 -78.45581055 93.45947266 C-78.21950312 100.62918952 -77.54508953 107.24375832 -75 114 C-74.47212891 115.47919922 -74.47212891 115.47919922 -73.93359375 116.98828125 C-65.94604565 137.73481709 -50.86532896 152.50045083 -30.75 161.5 C-20.93781557 165.36473098 -11.50084444 167.30915497 -1 168 C-1 172.29 -1 176.58 -1 181 C-15.31698666 181.71584933 -28.11206723 178.13711084 -41 172 C-41.89976562 171.58234375 -42.79953125 171.1646875 -43.7265625 170.734375 C-51.83080439 166.67057647 -58.33459008 161.04751196 -65 155 C-65.82757813 154.2678125 -66.65515625 153.535625 -67.5078125 152.78125 C-82.5729703 138.71343714 -92.21647295 117.175703 -93.3828125 96.69140625 C-93.89802321 80.62722066 -91.39542647 66.38133422 -84 52 C-83.71769531 51.34386719 -83.43539062 50.68773437 -83.14453125 50.01171875 C-73.95061162 29.16353481 -53.32782836 14.2775086 -32.97900391 5.75927734 C-22.27424126 1.65221938 -11.41864395 -0.154306 0 0 Z "
     fill="#3D4C6B"
     transform="translate(314,106)"
     id="path10" />
  <path
     id="path12"
     d="M 19.503906 -0.26953125 L 14.875 -0.1875 L 0 0 L 0 58 L 15.25 58.25 C 22.524651 58.419667 29.311933 58.479317 36.017578 56.845703 C 38.717196 56.54775 41.091602 55.614179 43.34375 54.298828 C 43.562573 54.19792 43.781023 54.105846 44 54 C 45.022367 53.310271 45.98547 52.607415 46.900391 51.886719 C 47.516362 51.419958 48.131411 50.937636 48.75 50.4375 C 49.376122 49.841657 49.945364 49.245594 50.488281 48.648438 C 53.727242 45.245106 55.937352 41.255798 57 36 C 57.071689 35.025873 57.113771 34.110726 57.158203 33.189453 C 57.303775 31.818501 57.395439 30.389203 57.4375 28.875 C 57.170196 20.916248 55.660832 14.617394 50.015625 8.7734375 C 46.128663 5.35293 42.163465 3.2714515 37.953125 2.0390625 C 32.251488 0.15051022 26.132169 -0.30978386 19.503906 -0.26953125 z "
     transform="translate(32,410)"
     style="fill:#3b4b69;fill-opacity:1" />
  <path
     d="M0 0 C0 4.62 0 9.24 0 14 C-1.423125 14.2475 -2.84625 14.495 -4.3125 14.75 C-18.42552426 17.65211485 -29.49818245 23.66223763 -38.27734375 35.34375 C-45.64750316 46.70816814 -47.24045419 58.08400312 -45.7265625 71.40625 C-43.05317138 83.7139374 -35.0433622 93.88023566 -24.75 100.8125 C-16.96703796 105.44286982 -8.92085624 108.51319063 0 110 C0 114.29 0 118.58 0 123 C-14.78446304 124.15956573 -28.6404322 116.33940459 -39.65234375 107.125 C-49.29454698 98.39728194 -55.38600394 88.4799864 -59 76 C-59.33 75.01 -59.66 74.02 -60 73 C-61.12347518 60.01177367 -60.931123 47.79931631 -55 36 C-54.56558594 35.11570313 -54.13117188 34.23140625 -53.68359375 33.3203125 C-45.10283489 17.62559116 -30.75445118 7.20228018 -13.81640625 2.02734375 C-8.98340836 0.7555022 -5.04195232 0 0 0 Z "
     fill="#87A78E"
     transform="translate(314,135)"
     id="path14" />
  <path
     d="M0 0 C10 0 10 0 12.55859375 1.94921875 C13.17863281 2.85285156 13.79867187 3.75648438 14.4375 4.6875 C15.16839844 5.69167969 15.89929688 6.69585937 16.65234375 7.73046875 C17.02987793 8.26591309 17.40741211 8.80135742 17.79638672 9.35302734 C19.8759044 12.19854992 22.19863939 14.83342 24.5 17.5 C25.42442687 18.58878386 26.34761061 19.67862445 27.26953125 20.76953125 C27.72150879 21.30400879 28.17348633 21.83848633 28.63916016 22.38916016 C29.0882373 22.9207373 29.53731445 23.45231445 30 24 C30.45036621 24.53286621 30.90073242 25.06573242 31.36474609 25.61474609 C32.64456474 27.13432586 33.91622152 28.66076838 35.1875 30.1875 C36.29158203 31.50814453 36.29158203 31.50814453 37.41796875 32.85546875 C39 35 39 35 39 37 C39.66 37 40.32 37 41 37 C41 24.79 41 12.58 41 0 C44.96 0 48.92 0 53 0 C53 19.14 53 38.28 53 58 C43 58 43 58 39.56640625 55.2109375 C38.53433652 53.95699448 37.5340081 52.67642731 36.5625 51.375 C36.02028809 50.70073975 35.47807617 50.02647949 34.91943359 49.33178711 C33.24973047 47.24283113 31.62380999 45.12473586 30 43 C28.99344255 41.72064024 27.98442291 40.44321285 26.97265625 39.16796875 C25.59309651 37.42670504 24.21803349 35.68371944 22.86547852 33.92138672 C19.40753686 29.41900834 15.76687083 25.30499523 12 21 C11.67 33.21 11.34 45.42 11 58 C7.37 58 3.74 58 0 58 C0 38.86 0 19.72 0 0 Z "
     fill="#3C4C6B"
     transform="translate(583,410)"
     id="path16" />
  <path
     d="M0 0 C9 0 9 0 11.75 2.01953125 C12.86375 3.40205078 12.86375 3.40205078 14 4.8125 C14.83660156 5.82183594 15.67320312 6.83117187 16.53515625 7.87109375 C17.34855469 8.90363281 18.16195313 9.93617188 19 11 C20.4785087 12.79220967 21.95765854 14.58389064 23.4375 16.375 C24.16066406 17.26960938 24.88382812 18.16421875 25.62890625 19.0859375 C28.34254991 22.42099214 31.10040129 25.7156313 33.875 29 C34.33962646 29.55220215 34.80425293 30.1044043 35.28295898 30.67333984 C37.44256039 33.22534458 39.6329412 35.6329412 42 38 C42 25.79 42 13.58 42 1 C45.3 1 48.6 1 52 1 C52 19.81 52 38.62 52 58 C43 58 43 58 40.43359375 56.1640625 C39.77488281 55.32617188 39.11617188 54.48828125 38.4375 53.625 C37.69371094 52.70847656 36.94992187 51.79195313 36.18359375 50.84765625 C35.46300781 49.90792969 34.74242187 48.96820313 34 48 C32.66711814 46.35380102 31.33379754 44.70795716 30 43.0625 C29.35417969 42.24394531 28.70835937 41.42539062 28.04296875 40.58203125 C22.80701372 33.96450491 17.40179394 27.48215273 12 21 C11.67 33.21 11.34 45.42 11 58 C7.37 58 3.74 58 0 58 C0 38.86 0 19.72 0 0 Z "
     fill="#3B4967"
     transform="translate(426,410)"
     id="path18" />
  <path
     d="M0 0 C14.19 0 28.38 0 43 0 C43 3.3 43 6.6 43 10 C32.44 10 21.88 10 11 10 C11 14.62 11 19.24 11 24 C20.24 24 29.48 24 39 24 C39 26.97 39 29.94 39 33 C29.76 33 20.52 33 11 33 C11 37.95 11 42.9 11 48 C21.89 48 32.78 48 44 48 C44 51.3 44 54.6 44 58 C29.48 58 14.96 58 0 58 C0 38.86 0 19.72 0 0 Z "
     fill="#4A5774"
     transform="translate(371,410)"
     id="path20" />
  <path
     d="M0 0 C14.19 0 28.38 0 43 0 C43 3.3 43 6.6 43 10 C32.44 10 21.88 10 11 10 C11 14.62 11 19.24 11 24 C20.24 24 29.48 24 39 24 C39 26.97 39 29.94 39 33 C29.76 33 20.52 33 11 33 C11 37.95 11 42.9 11 48 C21.89 48 32.78 48 44 48 C44 51.3 44 54.6 44 58 C29.48 58 14.96 58 0 58 C0 38.86 0 19.72 0 0 Z "
     fill="#42516E"
     transform="translate(190,410)"
     id="path22" />
  <path
     d="M0 0 C14.19 0 28.38 0 43 0 C43 3.3 43 6.6 43 10 C32.77 10 22.54 10 12 10 C12 14.62 12 19.24 12 24 C21.24 24 30.48 24 40 24 C40 26.97 40 29.94 40 33 C30.43 33 20.86 33 11 33 C11 38.28 11 43.56 11 49 C21.89 49 32.78 49 44 49 C44 51.97 44 54.94 44 58 C29.48 58 14.96 58 0 58 C0 38.86 0 19.72 0 0 Z "
     fill="#455470"
     transform="translate(650,410)"
     id="path24" />
  <path
     d="M0 0 C2.85660796 1.70474991 5.48346342 3.66784984 8.125 5.6875 C6.84931911 8.53324968 5.71003711 10.86839981 3.125 12.6875 C-0.8905827 12.47615354 -3.51479581 10.75531796 -6.875 8.6875 C-12.07005169 6.71696315 -17.43125459 7.19809478 -22.5625 8.9375 C-27.71541719 11.65979588 -31.25740006 13.97424327 -33.3671875 19.63671875 C-34.99617653 26.21532828 -34.44396605 32.10770438 -31.08203125 38 C-28.45927537 41.6667655 -24.98007371 43.96601748 -20.875 45.6875 C-18.25989513 46.00305129 -18.25989513 46.00305129 -15.5 45.9375 C-14.58476563 45.94265625 -13.66953125 45.9478125 -12.7265625 45.953125 C-9.27827462 45.74067497 -9.27827462 45.74067497 -3.875 43.6875 C-3.545 38.0775 -3.215 32.4675 -2.875 26.6875 C0.755 26.6875 4.385 26.6875 8.125 26.6875 C8.25987159 30.27208702 8.35905872 33.85161313 8.4375 37.4375 C8.47939453 38.45328125 8.52128906 39.4690625 8.56445312 40.515625 C8.68812431 48.03483296 8.68812431 48.03483296 5.9140625 51.25 C4.99367188 51.724375 4.07328125 52.19875 3.125 52.6875 C2.33222656 53.10515625 1.53945313 53.5228125 0.72265625 53.953125 C-9.0896638 57.76314758 -18.55339994 58.35956919 -28.4375 54.4375 C-37.22068984 50.49054645 -42.26839435 44.48196971 -45.69921875 35.5390625 C-48.1531219 26.73285687 -47.22924362 19.60097084 -42.875 11.6875 C-33.47597275 -1.60006287 -15.1444112 -7.56085297 0 0 Z "
     fill="#404E6A"
     transform="translate(535.875,412.3125)"
     id="path26" />
  <path
     d="M0 0 C2.02797675 1.41998372 4.01542878 2.88092408 5.98046875 4.38671875 C4.70478786 7.23246843 3.56550586 9.56761856 0.98046875 11.38671875 C-2.11901872 11.21917889 -4.04175243 10.37430663 -6.75390625 8.859375 C-12.68879039 6.18299782 -20.11844333 6.167219 -26.34375 8.11328125 C-30.74222936 10.46040906 -33.81081636 13.96928897 -36.01953125 18.38671875 C-36.82840453 27.86777444 -36.20933479 33.38598549 -30.08203125 40.69921875 C-26.02279785 44.02040971 -22.17771066 44.66303599 -17.01953125 44.63671875 C-16.00890625 44.641875 -14.99828125 44.64703125 -13.95703125 44.65234375 C-10.58207225 44.48845769 -10.58207225 44.48845769 -6.01953125 42.38671875 C-5.68953125 36.77671875 -5.35953125 31.16671875 -5.01953125 25.38671875 C-1.71953125 25.38671875 1.58046875 25.38671875 4.98046875 25.38671875 C5.08814302 29.15830922 5.16763326 32.92684515 5.23046875 36.69921875 C5.28074219 38.30700195 5.28074219 38.30700195 5.33203125 39.94726562 C5.34492188 40.97529297 5.3578125 42.00332031 5.37109375 43.0625 C5.39204102 44.01036377 5.41298828 44.95822754 5.43457031 45.93481445 C4.98046875 48.38671875 4.98046875 48.38671875 3.1159668 50.14648438 C-5.20982176 54.98185717 -14.51924348 56.71287204 -24.01953125 55.38671875 C-33.79244793 52.54453559 -40.8243301 48.29277786 -46.01953125 39.38671875 C-49.16493602 32.76481398 -50.25633752 25.06572077 -48.37109375 17.93359375 C-45.31865086 9.42849646 -40.03667592 2.72933878 -32.01953125 -1.61328125 C-21.66932656 -5.12290676 -9.61302747 -5.66573124 0 0 Z "
     fill="#3F4D6A"
     transform="translate(171.01953125,413.61328125)"
     id="path28" />
  <path
     d="M0 0 C1.19181885 -0.00193359 1.19181885 -0.00193359 2.40771484 -0.00390625 C8.9564612 0.11310688 14.4703421 1.46168861 20.375 4.375 C19.385 7.345 18.395 10.315 17.375 13.375 C15.993125 12.88 14.61125 12.385 13.1875 11.875 C7.04792909 10.04712205 0.72491594 9.31806773 -5.625 10.375 C-8.47623904 12.27808158 -8.47623904 12.27808158 -10.625 14.375 C-10.295 16.355 -9.965 18.335 -9.625 20.375 C-3.73853785 22.59274526 2.14390264 24.62444077 8.1875 26.375 C14.10562666 28.1792213 18.15832017 29.78887353 22.25 34.5625 C23.85521852 38.5755463 24.05278418 42.11249058 23.375 46.375 C20.38997979 52.23448411 15.79871528 56.39571638 9.64453125 58.8359375 C0.2098186 61.07688474 -11.06911168 59.92663659 -19.63671875 55.28515625 C-21.3125 54.1875 -21.3125 54.1875 -23.625 52.375 C-23.06771087 49.03126525 -22.27326111 46.34187001 -20.625 43.375 C-17.87582883 44.45800682 -15.32934929 45.54210692 -12.75 47 C-6.98587786 49.51780945 0.24017702 48.91363326 6.375 48.375 C8.73925273 47.47647763 8.73925273 47.47647763 10.375 46.375 C10.375 44.065 10.375 41.755 10.375 39.375 C5.54975434 36.63123286 1.32838949 35.04214467 -4.125 33.9375 C-10.82535558 32.50726169 -15.90852538 30.35435926 -20.5625 25.25 C-22.88908222 21.14426667 -23.25518449 16.98760036 -22.625 12.375 C-17.61703559 2.7300315 -10.23387649 -0.01707425 0 0 Z "
     fill="#3E4C69"
     transform="translate(264.625,409.625)"
     id="path32" />
  <path
     d="M0 0 C3.135 -0.0825 6.27 -0.165 9.5 -0.25 C10.47130859 -0.28641602 11.44261719 -0.32283203 12.44335938 -0.36035156 C19.13756157 -0.44477803 24.54623356 0.79428219 29.56030273 5.44824219 C34.23896325 10.71992562 34.30114295 15.52905034 34.2109375 22.3125 C33.7990345 27.56044932 31.856377 30.18085678 28.125 33.75 C21.96213188 38.18726505 17.05998429 38.25942367 9.6875 38.125 C4.8921875 38.063125 4.8921875 38.063125 0 38 C0 25.46 0 12.92 0 0 Z "
     fill="#FBFDFD"
     transform="translate(44,420)"
     id="path34" />
  <path
     d="M0 0 C16.5 0 33 0 50 0 C50 3.3 50 6.6 50 10 C43.73 10 37.46 10 31 10 C31 25.84 31 41.68 31 58 C27.04 58 23.08 58 19 58 C19 42.16 19 26.32 19 10 C12.73 10 6.46 10 0 10 C0 6.7 0 3.4 0 0 Z "
     fill="#495672"
     transform="translate(290,410)"
     id="path36" />
  <path
     d="M0 0 C3.96 0 7.92 0 12 0 C12 19.14 12 38.28 12 58 C8.04 58 4.08 58 0 58 C0 38.86 0 19.72 0 0 Z "
     fill="#495771"
     transform="translate(557,410)"
     id="path42" />
  <path
     d="M0 0 C3.63 0 7.26 0 11 0 C11 19.14 11 38.28 11 58 C7.37 58 3.74 58 0 58 C0 38.86 0 19.72 0 0 Z "
     fill="#3B4B69"
     transform="translate(100,410)"
     id="path44" />
  <path
     d="M0 0 C0.57007576 9.69128788 0.57007576 9.69128788 -3 14 C-6.21928398 17.04984798 -8.57649669 18.49445676 -13 19 C-13 18.01 -13 17.02 -13 16 C-14.65 15.67 -16.3 15.34 -18 15 C-17.875 13.25 -17.875 13.25 -17 11 C-16.030625 10.360625 -15.06125 9.72125 -14.0625 9.0625 C-10.63817233 6.75632014 -10.41722011 5.68477228 -9 2 C-5.60319752 -0.68168617 -4.07082473 -1.26455407 0 0 Z "
     fill="#3B4966"
     transform="translate(287,448)"
     id="path58" />
  <path
     d="M0 0 C1.125 3.75 1.125 3.75 0 6 C-0.66 6 -1.32 6 -2 6 C-2.433125 7.2065625 -2.433125 7.2065625 -2.875 8.4375 C-4 11 -4 11 -6 12 C-7.12224855 13.88013106 -7.12224855 13.88013106 -8.125 16.0625 C-8.47820312 16.79597656 -8.83140625 17.52945313 -9.1953125 18.28515625 C-9.59363281 19.13400391 -9.59363281 19.13400391 -10 20 C-10.66 20 -11.32 20 -12 20 C-10.02651335 12.30340207 -5.03676517 6.00537385 0 0 Z "
     fill="#90A995"
     transform="translate(270,155)"
     id="path94" />
  <path
     d="M0 0 C0.33 0.66 0.66 1.32 1 2 C1.99 1.67 2.98 1.34 4 1 C4.66 1.66 5.32 2.32 6 3 C5.67 3.99 5.34 4.98 5 6 C1.73045798 5.43628586 0.17424117 4.50037734 -2 2 C-1.34 2 -0.68 2 0 2 C0 1.34 0 0.68 0 0 Z "
     fill="#3E4B64"
     transform="translate(273,443)"
     id="path168" />
  <path
     d="M0 0 C0.99 0.99 1.98 1.98 3 3 C2.01 3.99 1.02 4.98 0 6 C-0.99 4.68 -1.98 3.36 -3 2 C-2.01 2 -1.02 2 0 2 C0 1.34 0 0.68 0 0 Z "
     fill="#8EA993"
     transform="translate(270,232)"
     id="path254" />
</svg>
