<svg width="1600" height="800" viewBox="0 0 1600 800" fill="none" xmlns="http://www.w3.org/2000/svg">
  <rect width="1600" height="800" fill="#EA580C"/>
  <rect x="112" y="96" width="1376" height="608" rx="48" fill="#FB923C"/>
  <circle cx="1320" cy="200" r="96" fill="#FDE68A"/>
  <circle cx="280" cy="584" r="144" fill="#FED7AA"/>
  <path d="M268 250C268 232.327 282.327 218 300 218H858C875.673 218 890 232.327 890 250V290C890 307.673 875.673 322 858 322H300C282.327 322 268 307.673 268 290V250Z" fill="#7C2D12"/>
  <path d="M268 382C268 364.327 282.327 350 300 350H1260C1277.67 350 1292 364.327 1292 382V414C1292 431.673 1277.67 446 1260 446H300C282.327 446 268 431.673 268 414V382Z" fill="#9A3412"/>
  <path d="M268 510C268 492.327 282.327 478 300 478H1064C1081.67 478 1096 492.327 1096 510V542C1096 559.673 1081.67 574 1064 574H300C282.327 574 268 559.673 268 542V510Z" fill="#C2410C"/>
</svg>
